<svg width="50" height="50" viewBox="0 0 50 50" fill="none" xmlns="http://www.w3.org/2000/svg">
<circle cx="25" cy="25" r="24.5" fill="white" stroke="#CCCCCC"/>
<path d="M18 31.0012H22.24C22.3716 31.0019 22.5021 30.9767 22.6239 30.927C22.7457 30.8772 22.8566 30.8039 22.95 30.7112L29.87 23.7833L32.71 21.0041C32.8037 20.9111 32.8781 20.8006 32.9289 20.6787C32.9797 20.5569 33.0058 20.4262 33.0058 20.2943C33.0058 20.1623 32.9797 20.0316 32.9289 19.9098C32.8781 19.788 32.8037 19.6774 32.71 19.5845L28.47 15.2957C28.377 15.202 28.2664 15.1276 28.1446 15.0769C28.0227 15.0261 27.892 15 27.76 15C27.628 15 27.4973 15.0261 27.3754 15.0769C27.2536 15.1276 27.143 15.202 27.05 15.2957L24.23 18.1249L17.29 25.0529C17.1973 25.1463 17.124 25.2571 17.0742 25.3789C17.0245 25.5007 16.9992 25.6311 17 25.7627V30.0014C17 30.2666 17.1054 30.5209 17.2929 30.7084C17.4804 30.8958 17.7348 31.0012 18 31.0012ZM27.76 17.4151L30.59 20.2443L29.17 21.6639L26.34 18.8347L27.76 17.4151ZM19 26.1726L24.93 20.2443L27.76 23.0735L21.83 29.0017H19V26.1726ZM34 33.0006H16C15.7348 33.0006 15.4804 33.1059 15.2929 33.2934C15.1054 33.4809 15 33.7351 15 34.0003C15 34.2654 15.1054 34.5197 15.2929 34.7072C15.4804 34.8947 15.7348 35 16 35H34C34.2652 35 34.5196 34.8947 34.7071 34.7072C34.8946 34.5197 35 34.2654 35 34.0003C35 33.7351 34.8946 33.4809 34.7071 33.2934C34.5196 33.1059 34.2652 33.0006 34 33.0006Z" fill="#CCCCCC"/>
</svg>
