<svg width="24" height="24" viewBox="0 0 24 24" fill="none" xmlns="http://www.w3.org/2000/svg">
<circle cx="12" cy="12" r="11.5" fill="#F7C034" stroke="#D69414"/>
<circle cx="12" cy="12" r="11" fill="#F7C034" stroke="#D69414" stroke-width="2"/>
<mask id="path-3-inside-1_1883_8662" fill="white">
<path d="M15.4585 7.31423C14.5777 6.66401 13.5313 6.27526 12.4396 6.1926C11.3478 6.10994 10.2549 6.33671 9.28616 6.8469C8.31742 7.35708 7.51212 8.13002 6.96265 9.07703C6.41318 10.024 6.1418 11.1068 6.17964 12.201C6.21747 13.2952 6.563 14.3566 7.17657 15.2634C7.79014 16.1702 8.64691 16.8856 9.64857 17.3277C10.6502 17.7697 11.7562 17.9205 12.8397 17.7626C13.9231 17.6047 14.9401 17.1446 15.7739 16.4351L14.2643 14.661C13.764 15.0867 13.1538 15.3627 12.5038 15.4574C11.8537 15.5522 11.1901 15.4617 10.5891 15.1965C9.9881 14.9313 9.47404 14.502 9.1059 13.9579C8.73776 13.4138 8.53044 12.777 8.50774 12.1205C8.48504 11.4639 8.64787 10.8143 8.97755 10.2461C9.30723 9.6779 9.79041 9.21414 10.3717 8.90803C10.9529 8.60191 11.6087 8.46585 12.2637 8.51545C12.9188 8.56504 13.5466 8.79829 14.0751 9.18843L15.4585 7.31423Z"/>
</mask>
<path d="M15.4585 7.31423C14.5777 6.66401 13.5313 6.27526 12.4396 6.1926C11.3478 6.10994 10.2549 6.33671 9.28616 6.8469C8.31742 7.35708 7.51212 8.13002 6.96265 9.07703C6.41318 10.024 6.1418 11.1068 6.17964 12.201C6.21747 13.2952 6.563 14.3566 7.17657 15.2634C7.79014 16.1702 8.64691 16.8856 9.64857 17.3277C10.6502 17.7697 11.7562 17.9205 12.8397 17.7626C13.9231 17.6047 14.9401 17.1446 15.7739 16.4351L14.2643 14.661C13.764 15.0867 13.1538 15.3627 12.5038 15.4574C11.8537 15.5522 11.1901 15.4617 10.5891 15.1965C9.9881 14.9313 9.47404 14.502 9.1059 13.9579C8.73776 13.4138 8.53044 12.777 8.50774 12.1205C8.48504 11.4639 8.64787 10.8143 8.97755 10.2461C9.30723 9.6779 9.79041 9.21414 10.3717 8.90803C10.9529 8.60191 11.6087 8.46585 12.2637 8.51545C12.9188 8.56504 13.5466 8.79829 14.0751 9.18843L15.4585 7.31423Z" fill="#F7C034" stroke="white" stroke-width="6" mask="url(#path-3-inside-1_1883_8662)"/>
</svg>
