<svg width="20" height="20" viewBox="0 0 20 20" fill="none" xmlns="http://www.w3.org/2000/svg">
<path d="M10 20C15.52 20 20 15.52 20 10C20 4.48 15.52 -3.91654e-07 10 -8.74228e-07C4.48 -1.3568e-06 4.03127e-07 4.48 -7.94466e-08 10C-5.6202e-07 15.52 4.48 20 10 20ZM6.21 10.29L9.29 7.21C9.68 6.82 10.31 6.82 10.71 7.21L13.79 10.29C14.18 10.68 14.18 11.32 13.79 11.71C13.4 12.1 12.77 12.1 12.38 11.71L10 9.33L7.62 11.71C7.23 12.1 6.6 12.1 6.21 11.71C5.82 11.32 5.82 10.68 6.21 10.29Z" fill="#999999"/>
</svg>
