<svg width="30" height="30" viewBox="0 0 30 30" fill="none" xmlns="http://www.w3.org/2000/svg">
<g clip-path="url(#clip0_130_40)">
<path d="M0.899902 3.8999C0.899902 2.24305 2.24305 0.899902 3.8999 0.899902H26.0999C27.7568 0.899902 29.0999 2.24305 29.0999 3.8999V15.8999C29.0999 17.5568 27.7568 18.8999 26.0999 18.8999H3.8999C2.24305 18.8999 0.899902 17.5568 0.899902 15.8999V3.8999Z" fill="#05142D" fill-opacity="0.05"/>
<path d="M11.6998 18.8999H18.2998L19.1998 26.6999H10.7998L11.6998 18.8999Z" fill="#05142D" fill-opacity="0.05"/>
<path d="M8.1001 27.9002C8.1001 27.2375 8.63736 26.7002 9.3001 26.7002H20.7001C21.3628 26.7002 21.9001 27.2375 21.9001 27.9002V27.9002C21.9001 28.5629 21.3628 29.1002 20.7001 29.1002H9.3001C8.63736 29.1002 8.1001 28.5629 8.1001 27.9002V27.9002Z" fill="#05142D" fill-opacity="0.05"/>
<path fill-rule="evenodd" clip-rule="evenodd" d="M0 3.78788C0 1.69589 1.69589 0 3.78788 0H26.2121C28.3041 0 30 1.69589 30 3.78788V15.9091C30 18.0011 28.3041 19.697 26.2121 19.697H19.1838L19.918 26.0606H20.7578C21.8456 26.0606 22.7275 26.9424 22.7275 28.0303C22.7275 29.1181 21.8456 30 20.7578 30H9.24265C8.15481 30 7.27295 29.1181 7.27295 28.0303C7.27295 26.9424 8.15481 26.0606 9.24265 26.0606H10.0828L10.8171 19.697H3.78788C1.69589 19.697 0 18.0011 0 15.9091V3.78788ZM19.0089 18.1818L19.0089 18.1818H10.9919L10.9919 18.1818H3.78788C2.53269 18.1818 1.51515 17.1643 1.51515 15.9091V3.78788C1.51515 2.53269 2.53269 1.51515 3.78788 1.51515H26.2121C27.4673 1.51515 28.4848 2.53269 28.4848 3.78788V15.9091C28.4848 17.1643 27.4673 18.1818 26.2121 18.1818H19.0089ZM12.3423 19.697L11.608 26.0606H18.3928L17.6585 19.697H12.3423ZM9.90796 27.5757L9.24265 27.5757C8.99161 27.5757 8.7881 27.7792 8.7881 28.0303C8.7881 28.2813 8.99161 28.4848 9.24265 28.4848H20.7578C21.0088 28.4848 21.2123 28.2813 21.2123 28.0303C21.2123 27.7792 21.0088 27.5757 20.7578 27.5757L20.0928 27.5757H9.90796Z" fill="#FEFEFE"/>
</g>
<defs>
<clipPath id="clip0_130_40">
<rect width="30" height="30" fill="white"/>
</clipPath>
</defs>
</svg>
