<svg width="30" height="30" viewBox="0 0 30 30" fill="none" xmlns="http://www.w3.org/2000/svg">
<path d="M6 3C6 1.34315 7.34315 0 9 0H21C22.6569 0 24 1.34315 24 3V27C24 28.6569 22.6569 30 21 30H9C7.34315 30 6 28.6569 6 27V3Z" fill="#05142D" fill-opacity="0.05"/>
<path fill-rule="evenodd" clip-rule="evenodd" d="M9 1.5H21C21.8284 1.5 22.5 2.17157 22.5 3V27C22.5 27.8284 21.8284 28.5 21 28.5H9C8.17157 28.5 7.5 27.8284 7.5 27V3C7.5 2.17157 8.17157 1.5 9 1.5ZM6 3C6 1.34315 7.34315 0 9 0H21C22.6569 0 24 1.34315 24 3V27C24 28.6569 22.6569 30 21 30H9C7.34315 30 6 28.6569 6 27V3ZM10.4999 1.5C10.4999 2.32843 11.1715 3 11.9999 3H17.9999C18.8283 3 19.4999 2.32843 19.4999 1.5H10.4999Z" fill="#262626"/>
</svg>
