<svg width="30" height="30" viewBox="0 0 30 30" fill="none" xmlns="http://www.w3.org/2000/svg">
<path d="M0.899902 7.5C0.899902 5.84315 2.24305 4.5 3.8999 4.5H26.0999C27.7568 4.5 29.0999 5.84315 29.0999 7.5V22.5C29.0999 24.1569 27.7568 25.5 26.0999 25.5H3.8999C2.24305 25.5 0.899902 24.1569 0.899902 22.5V7.5Z" fill="#05142D" fill-opacity="0.05"/>
<path fill-rule="evenodd" clip-rule="evenodd" d="M3.8999 3.75C1.82883 3.75 0.149902 5.42893 0.149902 7.5V22.5C0.149902 24.5711 1.82883 26.25 3.8999 26.25H26.0999C28.171 26.25 29.8499 24.5711 29.8499 22.5V7.5C29.8499 5.42893 28.171 3.75 26.0999 3.75H3.8999ZM1.6499 7.5C1.6499 6.25736 2.65726 5.25 3.8999 5.25H26.0999C27.3425 5.25 28.3499 6.25736 28.3499 7.5V22.5C28.3499 23.7426 27.3425 24.75 26.0999 24.75H3.8999C2.65726 24.75 1.6499 23.7426 1.6499 22.5V7.5ZM10.6499 21.9C10.2356 21.9 9.89985 22.2358 9.89985 22.65C9.89985 23.0642 10.2356 23.4 10.6499 23.4H19.3499C19.7641 23.4 20.0999 23.0642 20.0999 22.65C20.0999 22.2358 19.7641 21.9 19.3499 21.9H10.6499Z" fill="#FEFEFE"/>
</svg>
