<svg width="16" height="16" viewBox="0 0 16 16" fill="none" xmlns="http://www.w3.org/2000/svg">
<path d="M11 4.66699H11.001C11.1849 4.66699 11.334 4.81608 11.334 4.99999V5.00099C11.334 5.1849 11.1849 5.33399 11.001 5.33399H11C10.8161 5.33399 10.667 5.1849 10.667 5.00099V4.99999C10.667 4.81608 10.8161 4.66699 11 4.66699Z" fill="#C1C1C1" stroke="#C1C1C1" stroke-linecap="round" stroke-linejoin="round"/>
<path d="M2 3.333C2 2.597 2.597 2 3.333 2H12.667C13.403 2 14 2.597 14 3.333V12.667C14 13.403 13.403 14 12.667 14H3.333C2.97947 14 2.64041 13.8596 2.39043 13.6096C2.14044 13.3596 2 13.0205 2 12.667V3.333Z" stroke="#C1C1C1"/>
<path d="M8 4V12M4 8H12" stroke="#C1C1C1" stroke-linecap="round"/>
</svg>
