<svg width="39" height="16" fill="none" xmlns="http://www.w3.org/2000/svg"><path d="M12.277 9.976H9.461V8.728c1.304-.152 2.224-.912 2.224-2 0-1.24-1.176-2.032-2.752-2.032-1.568 0-2.744.792-2.744 2.032 0 1.088.912 1.848 2.216 2v1.248h-2.8v.856h6.672v-.856zM7.23 6.728c0-.752.696-1.192 1.704-1.192 1.016 0 1.712.44 1.712 1.192S9.95 7.92 8.933 7.92c-1.008 0-1.704-.44-1.704-1.192zM14.477 4.8h-1.048v3.928h5.24V4.8h-1.04v1.192h-3.152V4.8zm0 3.088V6.816h3.152v1.072h-3.152zm4.92 2.064h-6.672v.864h6.672v-.864zm6.767-5.64h-1v7.368h1V4.312zm-2.488.128v2.392h-.936v.856h.936v3.664h.984V4.44h-.984zM22.18 6.272v-.36h1.072v-.856h-3.28v.856h1.184v.36c0 1.28-.384 2.576-1.456 3.264l.624.776c.672-.416 1.096-1.136 1.352-1.976.248.776.64 1.416 1.312 1.8l.616-.768c-1.064-.616-1.424-1.864-1.424-3.096zm10.6 1.08v-2.84h-1.05v.648h-2.87v-.648h-1.048v2.84h4.968zm-1.049-1.4v.576H28.86v-.576h2.872zm-.92 2.712h2.816v-.84h-6.664v.84h2.792v.624H27.7v.832h4.064v1.576h1.056V9.288h-2.008v-.624z" fill="#6F6F6F"/><rect x=".5" y=".5" width="38" height="15" rx="7.5" stroke="#6F6F6F"/></svg>