<svg width="288" height="143" viewBox="0 0 288 143" fill="none" xmlns="http://www.w3.org/2000/svg">
<path fill-rule="evenodd" clip-rule="evenodd" d="M143.885 61.7692C160.942 61.7692 174.769 47.9417 174.769 30.8846C174.769 13.8275 160.942 0 143.885 0C126.828 0 113 13.8275 113 30.8846C113 47.9417 126.828 61.7692 143.885 61.7692ZM143.885 56.7877C158.191 56.7877 169.788 45.1905 169.788 30.8845C169.788 16.5785 158.191 4.98128 143.885 4.98128C129.579 4.98128 117.981 16.5785 117.981 30.8845C117.981 45.1905 129.579 56.7877 143.885 56.7877Z" fill="#FEFEFE"/>
<path fill-rule="evenodd" clip-rule="evenodd" d="M143.885 52.8029C155.99 52.8029 165.803 42.9898 165.803 30.8848C165.803 18.7797 155.99 8.96667 143.885 8.96667C131.78 8.96667 121.967 18.7797 121.967 30.8848C121.967 42.9898 131.78 52.8029 143.885 52.8029ZM143.885 21.9183C146.086 21.9183 147.87 20.1341 147.87 17.9332C147.87 15.7323 146.086 13.9481 143.885 13.9481C141.684 13.9481 139.9 15.7323 139.9 17.9332C139.9 20.1341 141.684 21.9183 143.885 21.9183ZM130.933 24.4088C130.933 23.5835 131.602 22.9144 132.428 22.9144H155.342C156.167 22.9144 156.836 23.5835 156.836 24.4088C156.836 25.2342 156.167 25.9033 155.342 25.9033H146.874V34.9833L149.756 45.7404C149.97 46.5376 149.496 47.3571 148.699 47.5707C147.902 47.7843 147.083 47.3112 146.869 46.514L144.016 35.8661H143.968L141.181 46.2689C140.967 47.0661 140.148 47.5392 139.351 47.3256C138.554 47.112 138.08 46.2926 138.294 45.4953L140.896 35.785V25.9033H132.428C131.602 25.9033 130.933 25.2342 130.933 24.4088Z" fill="#FEFEFE"/>
<circle cx="26.8939" cy="86.7235" r="6.72349" fill="#FEFEFE"/>
<path d="M21.8511 98.4896C21.8511 95.8002 25.2128 95.1278 26.8937 95.1278C31.6001 95.1278 33.337 97.369 33.6172 98.4896V105.213H45.3833C46.5756 106.527 46.4213 107.261 45.3833 108.575H33.6172V115.298H43.7024L54.6281 128.745C54.9082 129.586 55.1323 131.435 53.7876 132.107C52.4429 132.779 50.9862 132.387 50.4259 132.107L41.1811 120.341H26.8937C22.8596 120.341 21.8511 118.1 21.8511 116.979V98.4896Z" fill="#FEFEFE"/>
<path fill-rule="evenodd" clip-rule="evenodd" d="M36.9792 123.703C36.9792 133.914 28.7011 142.192 18.4896 142.192C8.27807 142.192 0 133.914 0 123.703C0 113.491 8.27807 105.213 18.4896 105.213C18.5051 105.213 18.5206 105.213 18.5361 105.213H18.4895V109.48C18.4895 109.48 18.4894 109.48 18.4894 109.48C10.6343 109.48 4.2666 115.848 4.2666 123.703C4.2666 131.558 10.6343 137.926 18.4894 137.926C26.3444 137.926 32.7121 131.558 32.7121 123.703C32.7121 123.703 32.7121 123.703 32.7121 123.703H36.9791V123.655C36.9792 123.671 36.9792 123.687 36.9792 123.703Z" fill="#FEFEFE"/>
<circle cx="105.831" cy="85.7171" r="2.71712" fill="#FEFEFE"/>
<circle cx="112.977" cy="85.7171" r="2.71712" fill="#FEFEFE"/>
<path d="M122.939 85.7171C122.939 87.2177 121.723 88.4342 120.222 88.4342C118.722 88.4342 117.505 87.2177 117.505 85.7171C117.505 84.2165 118.722 83 120.222 83C121.723 83 122.939 84.2165 122.939 85.7171Z" fill="#FEFEFE"/>
<path d="M94.0571 128.285H118.511V133.72H94.0571V128.285Z" fill="#E9E9E9"/>
<path d="M85.1005 115.606C85.1007 105.643 84.1949 104.737 87.8177 104.737C89.5862 104.737 90.5349 107.497 90.5349 109.266V115.606C92.0304 116.438 92.8159 116.374 94.1577 115.606V86.6231C94.1577 86.6231 95.5995 84.8116 96.8748 84.8116C98.1501 84.8116 99.5919 86.6231 99.5919 86.6231V107.454C100.297 108.173 100.693 107.916 101.395 107.46L101.403 107.454V101.114C101.403 101.114 102.845 99.303 104.12 99.303C105.396 99.303 106.838 101.114 106.838 101.114V107.454C107.544 108.087 107.943 108.05 108.649 107.454V101.114C108.649 101.114 110.247 99.303 111.366 99.303C112.484 99.303 114.083 101.114 114.083 101.114L114.083 107.454C114.877 108.054 115.25 108.086 115.894 107.454L115.895 102.926C115.895 102.926 117.336 101.114 118.612 101.114C119.887 101.114 121.329 102.926 121.329 102.926L121.329 125.568L118.612 129.191H94.1577H93.252L85.1005 115.606Z" fill="#FEFEFE"/>
<path d="M92.3463 137.343V133.72H121.329V137.343H119.517V139.154H94.1577V137.343H92.3463Z" fill="#FEFEFE"/>
<path fill-rule="evenodd" clip-rule="evenodd" d="M156.187 107.497C156.992 98.5626 164.501 91.5613 173.645 91.5613C182.789 91.5613 190.297 98.5626 191.103 107.497L187.9 107.497C187.107 100.326 181.027 94.7487 173.645 94.7487C166.263 94.7487 160.184 100.326 159.391 107.497L156.187 107.497Z" fill="#FEFEFE"/>
<path fill-rule="evenodd" clip-rule="evenodd" d="M176.903 91.7789C185.063 93.2774 191.246 100.426 191.246 109.019C191.246 117.612 185.063 124.761 176.903 126.259L176.903 123.006C183.29 121.557 188.059 115.845 188.059 109.019C188.059 102.193 183.29 96.4812 176.903 95.0322L176.903 91.7789Z" fill="#FEFEFE"/>
<path fill-rule="evenodd" clip-rule="evenodd" d="M164.155 107.497C164.599 103.03 168.742 99.5294 173.788 99.5294C178.833 99.5294 182.976 103.03 183.421 107.497L181.653 107.497C181.216 103.911 177.861 101.123 173.788 101.123C169.714 101.123 166.36 103.911 165.922 107.497L164.155 107.497Z" fill="#FEFEFE"/>
<path d="M171.326 137.774C174.803 137.774 173.716 137.774 175.31 136.181V126.62C175.31 125.026 175.31 122.583 178.497 122.583V136.181C178.497 138.571 177.063 140.961 171.326 140.961C165.589 140.961 164.155 135.65 164.155 132.994H167.342C167.607 134.587 168.776 137.774 171.326 137.774Z" fill="#FEFEFE"/>
<path d="M186.465 88.3741C188.855 89.1709 194.114 92.358 196.026 98.7322" stroke="#FEFEFE" stroke-width="2" stroke-linecap="round"/>
<path d="M186.465 82C190.449 83.3484 199.213 88.742 202.4 99.5291" stroke="#FEFEFE" stroke-width="2" stroke-linecap="round"/>
<circle cx="173.716" cy="109.09" r="1.59355" fill="#FEFEFE"/>
<circle cx="168.936" cy="113.871" r="1.59355" fill="#FEFEFE"/>
<circle cx="159.374" cy="121.839" r="1.59355" fill="#FEFEFE"/>
<circle cx="154.594" cy="126.619" r="1.59355" fill="#FEFEFE"/>
<rect x="163.221" y="113.871" width="7.96777" height="3.18711" rx="1.59355" transform="rotate(45 163.221 113.871)" fill="#FEFEFE"/>
<rect x="248.088" y="90.5111" width="4.59667" height="45.9667" transform="rotate(-19.192 248.088 90.5111)" fill="#FEFEFE"/>
<path fill-rule="evenodd" clip-rule="evenodd" d="M244.346 100.486C243.241 100.852 242.192 101.258 241.207 101.698L249.469 124.817C250.691 125.058 251.954 125.256 253.254 125.409L251.306 119.958C249.313 117.891 248.088 115.08 248.088 111.983C248.088 111.672 248.1 111.363 248.125 111.058L244.346 100.486ZM235.863 104.94C236.701 104.236 237.661 103.573 238.728 102.957L246.271 124.064C244.834 123.668 243.475 123.209 242.209 122.695L235.863 104.94ZM233.73 107.166C232.611 108.665 232 110.288 232 111.983C232 115.417 234.511 118.558 238.664 120.972L233.73 107.166ZM255.179 122.602C256.535 123.165 258.021 123.475 259.58 123.475C265.926 123.475 271.071 118.33 271.071 111.983C271.071 105.636 265.926 100.491 259.58 100.491C255.195 100.491 251.383 102.948 249.446 106.559L246.998 99.7086C250.77 98.7398 255.047 98.1931 259.58 98.1931C274.812 98.1931 287.16 104.367 287.16 111.983C287.16 119.599 274.812 125.773 259.58 125.773C258.344 125.773 257.127 125.732 255.934 125.654L256.232 125.547L255.179 122.602Z" fill="#FEFEFE"/>
</svg>
