<svg width="131" height="29" viewBox="0 0 131 29" fill="none" xmlns="http://www.w3.org/2000/svg">
<path d="M21.42 10.14C21.42 14.26 20.26 17.13 17.94 18.75C15.8 20.25 12.86 21 9.12 21H0.63V20.43H2.61V0.569998H0.63V-1.43051e-06H9.9C13.74 -1.43051e-06 16.62 0.789999 18.54 2.37C20.46 3.93 21.42 6.52 21.42 10.14ZM8.46 20.43H9.6C11.62 20.43 13.06 19.72 13.92 18.3C14.8 16.86 15.24 14.46 15.24 11.1V9.36C15.24 4.86 14.38 2.15 12.66 1.23C11.84 0.789999 10.68 0.569998 9.18 0.569998H8.46V20.43ZM32.6365 15.09V12.54C32.6365 10.6 32.5265 9.19 32.3065 8.31C32.1065 7.41 31.6265 6.96 30.8665 6.96C30.4265 6.96 30.0665 7.09 29.7865 7.35C29.5265 7.59 29.3365 8 29.2165 8.58C29.0365 9.48 28.9465 10.85 28.9465 12.69V15.03C28.9465 17.21 29.0065 18.52 29.1265 18.96C29.2665 19.4 29.4065 19.76 29.5465 20.04C29.7665 20.52 30.1965 20.76 30.8365 20.76C31.6165 20.76 32.1265 20.31 32.3665 19.41C32.5465 18.77 32.6365 17.33 32.6365 15.09ZM30.7765 21.3C28.2765 21.3 26.3865 20.66 25.1065 19.38C23.8265 18.1 23.1865 16.27 23.1865 13.89C23.1865 11.49 23.8665 9.65 25.2265 8.37C26.6065 7.07 28.5365 6.42 31.0165 6.42C33.4965 6.42 35.3465 7.02 36.5665 8.22C37.7865 9.4 38.3965 11.21 38.3965 13.65C38.3965 18.75 35.8565 21.3 30.7765 21.3ZM50.8455 9.87L55.1055 0.48H52.0755V-1.43051e-06H57.9855V0.48H56.0055L51.4755 10.5V20.43H53.3055V21H43.7955V20.43H45.6255V11.07L40.5255 0.48H39.1155V-1.43051e-06H48.7155V0.48H46.7655L50.8455 9.87ZM65.3025 15.09V12.54C65.3025 10.6 65.1925 9.19 64.9725 8.31C64.7725 7.41 64.2925 6.96 63.5325 6.96C63.0925 6.96 62.7325 7.09 62.4525 7.35C62.1925 7.59 62.0025 8 61.8825 8.58C61.7025 9.48 61.6125 10.85 61.6125 12.69V15.03C61.6125 17.21 61.6725 18.52 61.7925 18.96C61.9325 19.4 62.0725 19.76 62.2125 20.04C62.4325 20.52 62.8625 20.76 63.5025 20.76C64.2825 20.76 64.7925 20.31 65.0325 19.41C65.2125 18.77 65.3025 17.33 65.3025 15.09ZM63.4425 21.3C60.9425 21.3 59.0525 20.66 57.7725 19.38C56.4925 18.1 55.8525 16.27 55.8525 13.89C55.8525 11.49 56.5325 9.65 57.8925 8.37C59.2725 7.07 61.2025 6.42 63.6825 6.42C66.1625 6.42 68.0125 7.02 69.2325 8.22C70.4525 9.4 71.0625 11.21 71.0625 13.65C71.0625 18.75 68.5225 21.3 63.4425 21.3ZM89.4516 21H82.6116L82.2816 18.81C81.9616 19.61 81.4816 20.23 80.8416 20.67C80.2216 21.09 79.2916 21.3 78.0516 21.3C74.9516 21.3 73.4016 19.63 73.4016 16.29V7.26H71.7216V6.72H78.9816V17.01C78.9816 18.21 79.0616 19 79.2216 19.38C79.4016 19.76 79.7416 19.95 80.2416 19.95C80.7616 19.95 81.2216 19.64 81.6216 19.02C82.0216 18.4 82.2216 17.54 82.2216 16.44V7.26H80.8416V6.72H87.8016V20.46H89.4516V21ZM90.1256 6.72H97.3556V9.48C97.6756 8.56 98.1656 7.82 98.8256 7.26C99.4856 6.7 100.486 6.42 101.826 6.42C104.926 6.42 106.476 8.09 106.476 11.43V20.46H108.156V21H99.6656V20.46H100.896V10.71C100.896 9.51 100.816 8.74 100.656 8.4C100.496 8.04 100.206 7.86 99.7856 7.86C99.1456 7.86 98.5756 8.28 98.0756 9.12C97.5956 9.96 97.3556 10.98 97.3556 12.18V20.46H98.6456V21H90.1256V20.46H91.7756V7.26H90.1256V6.72ZM120.582 5.16L121.422 4.65C121.542 4.03 121.302 3.72 120.702 3.72C119.842 3.72 119.412 4.38 119.412 5.7C119.412 6.22 119.482 6.82 119.622 7.5C121.142 8.52 121.902 9.83 121.902 11.43C121.902 13.01 121.352 14.24 120.252 15.12C119.152 16 117.662 16.44 115.782 16.44C115.002 16.44 114.192 16.36 113.352 16.2C112.472 16.76 112.032 17.18 112.032 17.46C112.032 17.74 112.672 17.88 113.952 17.88H117.012C121.552 17.88 123.822 19.51 123.822 22.77C123.822 24.53 123.132 25.92 121.752 26.94C120.392 27.98 118.262 28.5 115.362 28.5C110.422 28.5 107.952 27.43 107.952 25.29C107.952 24.13 108.722 23.33 110.262 22.89L112.062 23.7C111.902 24.28 111.822 24.83 111.822 25.35C111.822 27.07 113.102 27.93 115.662 27.93C117.222 27.93 118.422 27.64 119.262 27.06C120.102 26.48 120.522 25.76 120.522 24.9C120.522 24.04 120.262 23.46 119.742 23.16C119.242 22.88 118.232 22.74 116.712 22.74H113.802C112.182 22.74 111.022 22.47 110.322 21.93C109.622 21.39 109.272 20.73 109.272 19.95C109.272 19.15 109.522 18.49 110.022 17.97C110.522 17.43 111.412 16.77 112.692 15.99C110.372 15.33 109.212 13.81 109.212 11.43C109.212 9.93 109.752 8.72 110.832 7.8C111.912 6.88 113.532 6.42 115.692 6.42C116.992 6.42 118.102 6.67 119.022 7.17C118.902 6.63 118.842 6.14 118.842 5.7C118.842 4.58 119.142 3.77 119.742 3.27C120.342 2.77 121.012 2.52 121.752 2.52C122.492 2.52 123.082 2.72 123.522 3.12C123.982 3.5 124.212 4.03 124.212 4.71C124.212 5.39 124.032 5.9 123.672 6.24C123.312 6.56 122.872 6.72 122.352 6.72C121.852 6.72 121.432 6.59 121.092 6.33C120.772 6.05 120.602 5.66 120.582 5.16ZM114.222 10.77V12.39C114.222 13.73 114.332 14.64 114.552 15.12C114.792 15.6 115.142 15.84 115.602 15.84C116.082 15.84 116.422 15.61 116.622 15.15C116.842 14.67 116.952 13.7 116.952 12.24V10.77C116.952 9.21 116.852 8.19 116.652 7.71C116.452 7.21 116.112 6.96 115.632 6.96C115.172 6.96 114.822 7.22 114.582 7.74C114.342 8.24 114.222 9.25 114.222 10.77ZM127.856 21.3C126.996 21.3 126.346 21.05 125.906 20.55C125.486 20.03 125.276 19.41 125.276 18.69C125.276 17.95 125.496 17.33 125.936 16.83C126.396 16.33 127.036 16.08 127.856 16.08C128.676 16.08 129.326 16.29 129.806 16.71C130.286 17.13 130.526 17.76 130.526 18.6C130.526 19.44 130.296 20.1 129.836 20.58C129.396 21.06 128.736 21.3 127.856 21.3Z" fill="black"/>
</svg>
