<svg width="452" height="233" viewBox="0 0 452 233" fill="none" xmlns="http://www.w3.org/2000/svg">
<path d="M153.806 96.6353L125 0H137.871L155.032 58.7151L166.677 18.9601L161.161 0H173.419L191.806 58.7151L208.354 0H256.16V6.72777L238.386 37.3085C251.257 37.3085 257.999 54.4338 257.999 67.2777C257.999 80.1216 250.644 97.8585 232.87 97.8585C218.651 97.8585 210.601 84.8107 208.354 78.2868L217.548 74.6171C217.548 84.8922 227.763 86.2378 232.87 85.6262C236.752 85.4223 244.515 81.4672 244.515 67.2777C244.515 53.0882 236.752 47.9099 232.87 47.0944H222.451V40.9782L238.386 12.8439H217.548L191.806 96.6353L173.419 37.3085L153.806 96.6353Z" fill="#FEFEFE"/>
<path d="M284.353 88.0726C273.076 88.0726 263.719 75.8403 260.45 69.7242C262.493 78.0829 270.134 95.1674 284.353 96.6353C298.573 98.1031 306.622 87.0533 308.869 81.3449V69.7242C305.396 75.8403 295.631 88.0726 284.353 88.0726Z" fill="#FEFEFE"/>
<path d="M281.289 15.902C268.541 19.3271 267.397 43.4247 268.418 55.0454C263.515 50.1525 263.924 31.3963 264.741 22.6298C266.784 15.0865 273.199 0 282.515 0C291.831 0 298.654 8.56262 300.902 12.8439L307.031 0L308.869 12.8439L300.902 25.0762C299.676 20.5911 294.037 12.477 281.289 15.902Z" fill="#FEFEFE"/>
<circle cx="319.5" cy="9.88843" r="6" stroke="#FEFEFE"/>
<path fill-rule="evenodd" clip-rule="evenodd" d="M317 13.8884H318.375V10.4793H320.438L321.125 13.8884H322.5L321.278 10.2521C321.889 9.94903 322.5 9.34297 322.5 8.43388C322.5 7.07025 321.125 6.38843 320.438 6.38843H317V10.4793V13.8884ZM318.375 7.07023V9.7975H319.946C321.518 9.7975 321.518 7.07023 319.946 7.07023H318.375Z" fill="#FEFEFE"/>
<path d="M299.467 127.438C299.488 127.463 299.5 127.494 299.499 127.526L298.063 142.066L305.915 165.211L281.236 163.517L281.842 155.665C282.238 148.734 286.547 134.879 299.248 127.395L299.228 127.429C299.24 127.424 299.257 127.412 299.265 127.409C299.272 127.407 299.283 127.395 299.289 127.395C299.321 127.386 299.354 127.386 299.385 127.395C299.417 127.399 299.446 127.414 299.467 127.438Z" fill="#DADADA"/>
<path d="M320.201 149.732C323.69 151.548 328.147 157.293 330.344 162.613C333.537 170.726 334.665 179.514 333.624 188.177C333.548 188.84 333.479 189.49 333.394 190.146C331.242 202.703 324.488 213.991 314.468 221.778C304.447 229.565 291.888 233.286 279.274 232.205C266.659 231.123 254.907 225.319 246.339 215.938C237.771 206.557 233.011 194.283 233 181.541V181.278C233.053 178.917 233.325 176.566 233.813 174.256L258.24 164.082L276.749 170.856L287.967 171.421L293.576 164.082H310.963L322.742 170.856L325.321 165.179C324.417 159.795 322.69 154.584 320.201 149.732Z" fill="#DADADA"/>
<path d="M283.651 171.755C283.568 173.02 279.124 177.386 277.571 177.386C263.193 177.386 260.859 186.14 260.859 186.14C261.495 193.512 266.599 199.583 272.768 202.795C273.05 202.942 273.336 203.074 273.622 203.204C274.116 203.425 274.611 203.629 275.106 203.816C277.223 204.571 279.441 205.001 281.685 205.094C306.886 206.284 311.768 174.763 293.582 165.616C297.872 165.054 302.217 166.116 305.773 168.595C303.552 164.649 300.331 161.366 296.44 159.079C292.549 156.792 288.125 155.582 283.619 155.574C283.019 155.574 282.431 155.624 281.842 155.665C276.77 156.015 271.921 157.897 267.927 161.062C268.698 161.719 269.568 162.596 271.401 164.415C274.832 167.817 283.632 171.341 283.651 171.755Z" fill="url(#paint0_linear_374_1333)"/>
<path d="M266.471 147.629C265.412 151.713 265.319 156.221 266.471 160.28L263.849 164.082L253.192 160.695L254.3 157.096C257.663 153.127 261.807 149.903 266.471 147.629Z" fill="#ECECEC"/>
<path d="M301.394 162.663C303.24 164.488 304.821 166.565 306.09 168.834C306.368 169.046 306.628 169.256 306.848 169.459C318.312 180.095 312.532 196.883 312.085 197.953C321.397 190.231 327.335 177.563 325.546 165.775C319.827 151.424 309.919 145.135 302.002 132.541C301.601 131.904 301.201 131.266 300.81 130.592C300.587 130.207 300.409 129.861 300.253 129.542C299.925 128.902 299.672 128.225 299.499 127.526C299.5 127.494 299.488 127.463 299.467 127.438C299.446 127.414 299.416 127.399 299.385 127.395C299.353 127.386 299.32 127.386 299.289 127.395C299.283 127.395 299.272 127.407 299.265 127.409C299.257 127.412 299.24 127.424 299.228 127.429C297.272 128.363 285.676 146.844 301.394 162.663Z" fill="#EAEAEA"/>
<path d="M233.462 182.745C237.364 205.951 258.261 223.67 281.985 224.346C303.942 224.971 317.969 212.142 323.764 199.628C328.67 188.812 329.234 175.668 325.337 164.444V165.233C325.337 165.195 325.329 165.172 325.337 165.184L325.346 165.269C327.14 177.057 321.183 188.476 311.871 196.198L311.842 196.264C293.698 211.137 276.334 205.237 272.819 202.829C272.574 202.711 272.329 202.588 272.083 202.46C261.504 197.371 257.134 187.67 258.071 179.351C255.559 179.388 253.091 178.691 250.966 177.345C248.84 176 247.147 174.062 246.093 171.768C248.87 170.055 252.037 169.087 255.291 168.956C258.545 168.824 261.778 169.534 264.682 171.017C270.67 173.753 277.484 174.022 283.667 171.768C283.647 171.354 274.848 167.829 271.417 164.428C269.584 162.609 268.714 161.733 267.943 161.076C267.526 160.72 267.09 160.388 266.638 160.08C266.338 159.874 266 159.651 265.594 159.383C261.906 156.97 254.572 157.102 254.329 157.109H254.306C252.302 154.552 252.443 146.123 252.557 144.362C251.965 144.602 251.399 144.904 250.869 145.264C249.1 146.535 247.447 147.961 245.928 149.525C244.19 151.286 242.603 153.191 241.181 155.219V155.227V155.218C237.931 159.857 235.625 165.097 234.397 170.637C234.373 170.741 232.576 178.645 233.462 182.745Z" fill="#FEFEFE"/>
<path d="M452 179.388C452 192.119 446.943 204.328 437.941 213.33C428.939 222.331 416.73 227.388 404 227.388C391.27 227.388 379.061 222.331 370.059 213.329C361.057 204.328 356 192.119 356 179.388C356 166.658 361.057 154.449 370.059 145.447C379.061 136.446 391.27 131.388 404 131.388C416.73 131.388 428.939 136.446 437.941 145.447C446.943 154.449 452 166.658 452 179.388Z" fill="url(#paint1_linear_374_1333)"/>
<path d="M448.239 179.388C448.239 191.121 443.578 202.374 435.281 210.67C426.985 218.966 415.733 223.627 404 223.627C392.267 223.627 381.015 218.966 372.718 210.67C364.422 202.374 359.761 191.121 359.761 179.388C359.761 167.656 364.422 156.403 372.718 148.107C381.015 139.811 392.267 135.15 404 135.15C415.733 135.15 426.985 139.811 435.281 148.107C443.578 156.403 448.239 167.656 448.239 179.388Z" fill="url(#paint2_linear_374_1333)"/>
<path d="M404 137.457C403.915 137.457 403.831 137.473 403.753 137.505C403.675 137.538 403.603 137.585 403.543 137.645C403.484 137.705 403.436 137.776 403.404 137.855C403.371 137.933 403.355 138.017 403.355 138.102V145.541C403.355 145.626 403.371 145.71 403.404 145.789C403.436 145.867 403.484 145.938 403.543 145.998C403.603 146.058 403.675 146.105 403.753 146.138C403.831 146.17 403.915 146.187 404 146.187C404.085 146.187 404.169 146.17 404.247 146.138C404.325 146.105 404.397 146.058 404.457 145.998C404.516 145.938 404.564 145.867 404.596 145.788C404.629 145.71 404.645 145.626 404.645 145.541V138.102C404.645 138.017 404.629 137.933 404.596 137.855C404.564 137.776 404.516 137.705 404.456 137.645C404.396 137.585 404.325 137.538 404.247 137.506C404.169 137.473 404.085 137.457 404 137.457ZM399.781 137.723C399.737 137.719 399.693 137.719 399.649 137.724C399.565 137.733 399.483 137.758 399.409 137.798C399.334 137.838 399.268 137.893 399.215 137.959C399.162 138.025 399.122 138.1 399.098 138.182C399.074 138.263 399.066 138.348 399.075 138.432L399.4 141.545C399.409 141.629 399.434 141.711 399.474 141.786C399.514 141.86 399.569 141.926 399.635 141.979C399.701 142.033 399.776 142.073 399.858 142.097C399.939 142.121 400.024 142.128 400.108 142.119C400.193 142.111 400.274 142.086 400.349 142.045C400.424 142.005 400.489 141.95 400.543 141.885C400.596 141.819 400.636 141.743 400.66 141.662C400.684 141.58 400.692 141.495 400.683 141.411L400.358 138.299C400.343 138.151 400.277 138.013 400.172 137.908C400.067 137.803 399.928 137.738 399.781 137.723ZM408.249 137.726C408.101 137.741 407.963 137.806 407.857 137.911C407.752 138.016 407.686 138.154 407.671 138.301L407.344 141.414C407.335 141.498 407.342 141.583 407.366 141.664C407.39 141.746 407.43 141.821 407.484 141.887C407.537 141.953 407.603 142.008 407.677 142.048C407.752 142.089 407.834 142.114 407.918 142.123C408.002 142.132 408.088 142.124 408.169 142.1C408.25 142.076 408.326 142.036 408.392 141.983C408.458 141.929 408.512 141.864 408.553 141.789C408.593 141.715 408.618 141.633 408.627 141.549L408.954 138.436C408.963 138.352 408.955 138.267 408.931 138.185C408.907 138.104 408.868 138.028 408.814 137.962C408.761 137.897 408.695 137.842 408.62 137.802C408.546 137.761 408.464 137.736 408.38 137.727C408.336 137.723 408.293 137.723 408.249 137.726ZM395.446 138.352C395.35 138.352 395.256 138.374 395.169 138.415C395.083 138.457 395.007 138.517 394.947 138.592C394.887 138.666 394.844 138.753 394.822 138.846C394.799 138.94 394.798 139.037 394.818 139.13L396.359 146.409C396.376 146.492 396.41 146.57 396.458 146.64C396.506 146.71 396.567 146.77 396.638 146.816C396.709 146.862 396.789 146.894 396.872 146.91C396.955 146.925 397.041 146.924 397.124 146.906C397.207 146.889 397.285 146.855 397.355 146.807C397.425 146.759 397.485 146.698 397.531 146.627C397.577 146.556 397.609 146.477 397.625 146.394C397.64 146.31 397.639 146.225 397.621 146.142L396.08 138.863C396.05 138.718 395.97 138.587 395.855 138.494C395.739 138.401 395.595 138.351 395.446 138.352ZM412.583 138.358C412.435 138.357 412.29 138.407 412.174 138.5C412.059 138.593 411.979 138.724 411.949 138.869L410.402 146.147C410.385 146.229 410.383 146.315 410.399 146.398C410.414 146.482 410.446 146.561 410.492 146.632C410.538 146.703 410.598 146.765 410.668 146.812C410.738 146.86 410.816 146.894 410.899 146.911C410.982 146.929 411.068 146.931 411.151 146.915C411.234 146.9 411.314 146.868 411.385 146.822C411.456 146.776 411.517 146.716 411.565 146.646C411.613 146.576 411.647 146.498 411.664 146.415L413.21 139.137C413.23 139.044 413.229 138.947 413.207 138.853C413.185 138.76 413.142 138.673 413.082 138.598C413.022 138.524 412.946 138.464 412.86 138.422C412.774 138.381 412.679 138.358 412.583 138.358ZM391.309 139.518C391.223 139.511 391.137 139.521 391.055 139.548C390.974 139.574 390.899 139.616 390.835 139.671C390.77 139.726 390.717 139.793 390.679 139.868C390.64 139.944 390.617 140.026 390.611 140.111C390.604 140.195 390.614 140.28 390.641 140.361L391.608 143.337C391.634 143.418 391.675 143.492 391.73 143.557C391.785 143.621 391.852 143.675 391.928 143.713C392.003 143.751 392.086 143.775 392.17 143.781C392.255 143.788 392.34 143.778 392.42 143.751C392.501 143.725 392.576 143.684 392.64 143.629C392.705 143.574 392.758 143.506 392.796 143.431C392.835 143.355 392.858 143.273 392.865 143.188C392.871 143.104 392.861 143.019 392.834 142.938L391.867 139.962C391.828 139.841 391.755 139.735 391.656 139.656C391.556 139.577 391.436 139.529 391.309 139.518ZM416.696 139.52C416.57 139.531 416.45 139.579 416.35 139.657C416.251 139.736 416.177 139.843 416.138 139.964L415.171 142.94C415.144 143.02 415.134 143.105 415.141 143.19C415.147 143.274 415.171 143.357 415.209 143.432C415.247 143.508 415.3 143.575 415.365 143.63C415.429 143.685 415.504 143.726 415.585 143.752C415.665 143.779 415.75 143.789 415.835 143.782C415.919 143.776 416.002 143.753 416.077 143.714C416.153 143.676 416.22 143.623 416.275 143.558C416.33 143.494 416.372 143.419 416.398 143.339L417.365 140.362C417.392 140.282 417.402 140.197 417.395 140.112C417.389 140.028 417.366 139.945 417.327 139.87C417.289 139.794 417.236 139.727 417.171 139.672C417.107 139.617 417.032 139.576 416.951 139.549C416.869 139.523 416.783 139.513 416.696 139.52ZM387.219 141.015C387.132 141.017 387.047 141.036 386.969 141.072C386.891 141.106 386.821 141.155 386.763 141.216C386.704 141.278 386.659 141.35 386.628 141.429C386.598 141.508 386.583 141.593 386.586 141.677C386.588 141.762 386.607 141.845 386.641 141.923L389.663 148.721C389.697 148.799 389.746 148.869 389.808 148.927C389.869 148.985 389.942 149.031 390.021 149.062C390.1 149.092 390.184 149.107 390.269 149.104C390.353 149.102 390.437 149.083 390.514 149.048C390.592 149.014 390.662 148.965 390.72 148.904C390.779 148.842 390.824 148.77 390.855 148.691C390.885 148.612 390.9 148.527 390.898 148.443C390.895 148.358 390.876 148.275 390.842 148.197L387.82 141.399C387.769 141.283 387.684 141.185 387.577 141.116C387.47 141.048 387.346 141.013 387.219 141.015ZM420.833 141.038C420.706 141.036 420.582 141.071 420.475 141.139C420.368 141.207 420.283 141.305 420.232 141.421L417.201 148.215C417.166 148.292 417.147 148.376 417.145 148.461C417.142 148.545 417.157 148.63 417.187 148.709C417.217 148.788 417.263 148.86 417.321 148.922C417.38 148.983 417.45 149.032 417.527 149.067C417.604 149.101 417.688 149.121 417.772 149.123C417.857 149.125 417.942 149.111 418.021 149.081C418.1 149.05 418.172 149.005 418.234 148.946C418.295 148.888 418.344 148.818 418.379 148.74L421.41 141.946C421.444 141.869 421.463 141.786 421.466 141.701C421.468 141.616 421.454 141.532 421.423 141.453C421.393 141.374 421.347 141.301 421.289 141.24C421.231 141.178 421.161 141.129 421.083 141.095C421.004 141.059 420.919 141.04 420.833 141.038ZM383.422 143.024C383.294 143.015 383.165 143.045 383.054 143.11C382.981 143.152 382.917 143.208 382.865 143.276C382.813 143.343 382.775 143.419 382.753 143.501C382.731 143.583 382.726 143.669 382.737 143.753C382.748 143.837 382.776 143.918 382.818 143.991L384.383 146.701C384.425 146.775 384.482 146.839 384.549 146.891C384.616 146.942 384.693 146.98 384.775 147.002C384.856 147.024 384.942 147.03 385.026 147.018C385.11 147.007 385.191 146.98 385.264 146.937C385.338 146.895 385.402 146.839 385.454 146.771C385.505 146.704 385.543 146.627 385.565 146.546C385.587 146.464 385.593 146.378 385.582 146.294C385.57 146.21 385.543 146.129 385.5 146.056L383.936 143.346C383.883 143.254 383.809 143.177 383.719 143.121C383.63 143.065 383.527 143.032 383.422 143.024ZM424.578 143.024C424.473 143.031 424.371 143.065 424.281 143.121C424.191 143.177 424.117 143.254 424.065 143.346L422.5 146.056C422.457 146.129 422.43 146.21 422.418 146.294C422.407 146.378 422.413 146.464 422.435 146.546C422.457 146.627 422.495 146.704 422.546 146.771C422.598 146.839 422.662 146.895 422.736 146.937C422.809 146.98 422.89 147.007 422.974 147.018C423.058 147.03 423.144 147.024 423.226 147.002C423.307 146.98 423.384 146.942 423.451 146.891C423.519 146.839 423.575 146.775 423.617 146.701L425.182 143.991C425.224 143.917 425.252 143.836 425.263 143.752C425.274 143.668 425.269 143.583 425.247 143.501C425.225 143.419 425.187 143.343 425.135 143.275C425.084 143.208 425.019 143.152 424.946 143.11C424.834 143.045 424.706 143.015 424.578 143.024ZM379.735 145.324C379.606 145.328 379.482 145.371 379.378 145.447C379.309 145.497 379.251 145.559 379.207 145.631C379.162 145.704 379.133 145.784 379.119 145.868C379.106 145.951 379.109 146.037 379.129 146.119C379.149 146.202 379.185 146.279 379.235 146.348L383.603 152.37C383.653 152.438 383.716 152.497 383.788 152.541C383.86 152.585 383.94 152.615 384.024 152.628C384.108 152.642 384.193 152.638 384.276 152.619C384.358 152.599 384.436 152.563 384.504 152.513C384.573 152.463 384.631 152.401 384.676 152.328C384.72 152.256 384.75 152.176 384.763 152.092C384.776 152.009 384.773 151.923 384.753 151.841C384.733 151.758 384.697 151.681 384.648 151.612L380.279 145.59C380.217 145.505 380.135 145.436 380.04 145.389C379.945 145.343 379.84 145.32 379.735 145.324ZM428.311 145.357C428.206 145.353 428.101 145.375 428.006 145.421C427.911 145.468 427.829 145.537 427.767 145.622L423.39 151.638C423.34 151.707 423.304 151.784 423.284 151.867C423.264 151.949 423.261 152.035 423.274 152.118C423.287 152.202 423.317 152.282 423.361 152.355C423.406 152.427 423.464 152.49 423.532 152.539C423.601 152.589 423.679 152.625 423.761 152.645C423.843 152.665 423.929 152.669 424.012 152.656C424.096 152.642 424.176 152.613 424.249 152.568C424.321 152.524 424.384 152.466 424.433 152.397L428.81 146.381C428.86 146.313 428.896 146.235 428.916 146.153C428.936 146.071 428.939 145.985 428.926 145.901C428.913 145.818 428.883 145.737 428.839 145.665C428.795 145.593 428.736 145.53 428.668 145.48C428.564 145.404 428.44 145.361 428.311 145.357ZM376.439 148.088C376.355 148.083 376.27 148.095 376.19 148.124C376.11 148.152 376.037 148.196 375.974 148.253C375.911 148.31 375.86 148.378 375.823 148.455C375.786 148.531 375.765 148.614 375.761 148.699C375.756 148.783 375.769 148.868 375.797 148.948C375.825 149.028 375.869 149.101 375.926 149.164L378.02 151.49C378.077 151.553 378.145 151.604 378.222 151.641C378.298 151.678 378.381 151.699 378.466 151.703C378.55 151.708 378.635 151.695 378.715 151.667C378.795 151.638 378.868 151.595 378.931 151.538C378.994 151.481 379.045 151.413 379.082 151.336C379.118 151.26 379.14 151.177 379.144 151.092C379.148 151.007 379.136 150.923 379.108 150.843C379.079 150.763 379.035 150.69 378.979 150.627L376.885 148.301C376.828 148.238 376.76 148.186 376.684 148.15C376.607 148.113 376.524 148.092 376.439 148.088ZM431.565 148.092C431.394 148.101 431.234 148.178 431.12 148.306L429.026 150.631C428.969 150.694 428.925 150.767 428.897 150.847C428.868 150.927 428.856 151.012 428.86 151.096C428.865 151.181 428.886 151.264 428.922 151.341C428.959 151.417 429.01 151.486 429.073 151.542C429.136 151.599 429.21 151.643 429.29 151.671C429.369 151.7 429.454 151.712 429.539 151.707C429.623 151.703 429.706 151.682 429.783 151.645C429.859 151.609 429.928 151.557 429.984 151.494L432.078 149.169C432.135 149.106 432.179 149.032 432.207 148.953C432.236 148.873 432.248 148.788 432.244 148.703C432.239 148.619 432.218 148.536 432.182 148.459C432.145 148.383 432.094 148.314 432.031 148.258C431.968 148.201 431.894 148.157 431.815 148.129C431.735 148.1 431.65 148.088 431.565 148.092ZM373.281 151.122C373.196 151.126 373.113 151.147 373.037 151.184C372.96 151.221 372.892 151.272 372.835 151.335C372.778 151.398 372.735 151.471 372.706 151.551C372.678 151.631 372.665 151.716 372.67 151.8C372.674 151.885 372.695 151.968 372.732 152.044C372.769 152.121 372.82 152.189 372.883 152.246L378.412 157.223C378.475 157.28 378.549 157.324 378.629 157.352C378.708 157.381 378.793 157.393 378.878 157.389C378.962 157.384 379.045 157.363 379.122 157.326C379.198 157.29 379.267 157.239 379.323 157.176C379.38 157.113 379.424 157.039 379.452 156.959C379.481 156.88 379.493 156.795 379.489 156.71C379.484 156.626 379.463 156.543 379.427 156.466C379.39 156.39 379.339 156.321 379.276 156.265L373.746 151.287C373.683 151.23 373.61 151.186 373.53 151.158C373.45 151.13 373.365 151.117 373.281 151.122ZM434.739 151.144C434.655 151.139 434.57 151.151 434.49 151.179C434.41 151.208 434.336 151.252 434.273 151.309L428.741 156.282C428.678 156.339 428.626 156.407 428.59 156.484C428.553 156.56 428.532 156.643 428.527 156.727C428.523 156.812 428.535 156.897 428.563 156.977C428.592 157.057 428.635 157.13 428.692 157.193C428.749 157.256 428.817 157.307 428.894 157.344C428.97 157.381 429.053 157.402 429.138 157.406C429.222 157.411 429.307 157.399 429.387 157.37C429.467 157.342 429.54 157.298 429.603 157.241L435.136 152.268C435.199 152.211 435.251 152.143 435.287 152.066C435.324 151.99 435.345 151.907 435.35 151.822C435.354 151.738 435.342 151.653 435.314 151.573C435.285 151.493 435.241 151.42 435.185 151.357C435.128 151.294 435.06 151.242 434.983 151.206C434.907 151.169 434.824 151.148 434.739 151.144ZM370.654 154.499C370.548 154.495 370.444 154.518 370.349 154.564C370.254 154.611 370.172 154.68 370.11 154.765C370.06 154.834 370.024 154.911 370.004 154.994C369.984 155.076 369.981 155.162 369.994 155.246C370.007 155.329 370.037 155.41 370.081 155.482C370.126 155.554 370.184 155.617 370.253 155.666L372.784 157.506C372.853 157.556 372.93 157.592 373.013 157.611C373.095 157.631 373.181 157.635 373.264 157.622C373.348 157.608 373.428 157.579 373.501 157.534C373.573 157.49 373.636 157.432 373.685 157.363C373.735 157.295 373.771 157.217 373.791 157.135C373.811 157.052 373.814 156.967 373.801 156.883C373.788 156.799 373.758 156.719 373.714 156.647C373.67 156.575 373.611 156.512 373.543 156.462L371.011 154.623C370.907 154.547 370.783 154.504 370.654 154.499ZM437.363 154.523C437.235 154.527 437.111 154.57 437.007 154.646L434.474 156.484C434.405 156.533 434.347 156.596 434.302 156.668C434.258 156.74 434.228 156.821 434.215 156.904C434.202 156.988 434.205 157.073 434.225 157.156C434.244 157.238 434.28 157.316 434.33 157.385C434.38 157.453 434.443 157.511 434.515 157.556C434.587 157.6 434.667 157.63 434.751 157.643C434.835 157.657 434.92 157.653 435.003 157.633C435.085 157.614 435.163 157.578 435.231 157.528L437.764 155.69C437.833 155.64 437.891 155.578 437.935 155.505C437.98 155.433 438.009 155.353 438.023 155.269C438.036 155.186 438.033 155.1 438.013 155.018C437.993 154.935 437.957 154.858 437.907 154.789C437.845 154.704 437.764 154.634 437.669 154.588C437.574 154.541 437.469 154.519 437.363 154.523ZM368.2 158.102C368.094 158.109 367.992 158.142 367.903 158.198C367.813 158.254 367.739 158.332 367.686 158.423C367.644 158.497 367.616 158.578 367.605 158.662C367.594 158.746 367.599 158.831 367.621 158.913C367.643 158.995 367.681 159.072 367.733 159.139C367.784 159.206 367.849 159.262 367.922 159.305L374.365 163.024C374.438 163.067 374.519 163.095 374.603 163.106C374.687 163.117 374.773 163.111 374.855 163.089C374.937 163.067 375.013 163.03 375.081 162.978C375.148 162.926 375.204 162.862 375.246 162.788C375.289 162.715 375.316 162.634 375.328 162.55C375.339 162.466 375.333 162.381 375.311 162.299C375.289 162.217 375.251 162.14 375.2 162.073C375.148 162.006 375.084 161.95 375.01 161.907L368.567 158.187C368.456 158.123 368.328 158.093 368.2 158.102ZM439.801 158.102C439.672 158.093 439.544 158.123 439.433 158.187L432.99 161.907C432.917 161.95 432.852 162.006 432.801 162.073C432.749 162.14 432.711 162.217 432.689 162.299C432.667 162.381 432.662 162.466 432.673 162.55C432.684 162.634 432.712 162.715 432.754 162.788C432.796 162.862 432.853 162.926 432.92 162.978C432.987 163.03 433.064 163.067 433.146 163.089C433.228 163.111 433.313 163.117 433.397 163.106C433.481 163.095 433.562 163.067 433.635 163.024L440.078 159.305C440.152 159.262 440.216 159.206 440.268 159.139C440.319 159.072 440.357 158.995 440.379 158.913C440.401 158.831 440.407 158.746 440.396 158.662C440.384 158.578 440.357 158.497 440.314 158.424C440.262 158.332 440.187 158.255 440.098 158.199C440.008 158.143 439.906 158.109 439.801 158.102ZM366.343 161.942C366.217 161.939 366.092 161.974 365.985 162.042C365.878 162.11 365.793 162.209 365.742 162.325C365.707 162.402 365.688 162.485 365.686 162.57C365.684 162.655 365.698 162.739 365.728 162.818C365.759 162.898 365.804 162.97 365.863 163.031C365.921 163.093 365.991 163.142 366.068 163.176L368.927 164.451C369.004 164.486 369.087 164.505 369.172 164.508C369.257 164.51 369.341 164.496 369.42 164.465C369.499 164.435 369.572 164.389 369.633 164.331C369.695 164.273 369.744 164.203 369.778 164.125C369.813 164.048 369.832 163.964 369.834 163.88C369.837 163.795 369.822 163.711 369.792 163.631C369.762 163.552 369.716 163.48 369.658 163.418C369.599 163.357 369.529 163.308 369.452 163.273L366.594 161.998C366.515 161.963 366.43 161.944 366.343 161.942ZM441.669 161.969C441.583 161.97 441.497 161.99 441.418 162.025L438.56 163.298C438.482 163.332 438.412 163.381 438.354 163.443C438.295 163.504 438.249 163.576 438.219 163.655C438.189 163.735 438.174 163.819 438.177 163.904C438.179 163.988 438.198 164.072 438.232 164.149C438.267 164.227 438.316 164.297 438.378 164.355C438.439 164.414 438.511 164.459 438.59 164.49C438.67 164.52 438.754 164.534 438.839 164.532C438.924 164.53 439.007 164.511 439.084 164.476L441.943 163.203C442.021 163.169 442.091 163.12 442.149 163.058C442.207 162.997 442.253 162.925 442.283 162.845C442.314 162.766 442.328 162.682 442.326 162.597C442.324 162.513 442.305 162.429 442.27 162.352C442.219 162.236 442.134 162.138 442.027 162.069C441.92 162.001 441.796 161.966 441.669 161.969ZM364.69 165.956C364.563 165.966 364.443 166.014 364.343 166.093C364.244 166.172 364.17 166.278 364.131 166.399C364.105 166.479 364.095 166.564 364.101 166.649C364.108 166.733 364.131 166.816 364.169 166.891C364.208 166.967 364.261 167.034 364.325 167.089C364.389 167.144 364.464 167.186 364.545 167.212L371.618 169.517C371.699 169.543 371.784 169.554 371.868 169.547C371.953 169.541 372.035 169.518 372.111 169.479C372.186 169.441 372.254 169.388 372.309 169.323C372.364 169.259 372.405 169.184 372.432 169.103C372.458 169.023 372.468 168.938 372.462 168.854C372.455 168.769 372.432 168.687 372.394 168.611C372.355 168.536 372.302 168.468 372.238 168.413C372.173 168.358 372.099 168.317 372.018 168.29L364.944 165.985C364.862 165.958 364.776 165.949 364.69 165.956ZM443.32 165.983C443.234 165.976 443.147 165.986 443.065 166.013L435.99 168.313C435.909 168.339 435.835 168.381 435.77 168.436C435.706 168.491 435.653 168.558 435.614 168.633C435.576 168.709 435.552 168.791 435.546 168.876C435.539 168.96 435.55 169.045 435.576 169.126C435.602 169.207 435.644 169.281 435.699 169.346C435.754 169.41 435.821 169.463 435.897 169.502C435.972 169.54 436.054 169.563 436.139 169.57C436.223 169.576 436.308 169.566 436.389 169.54L443.464 167.24C443.545 167.214 443.619 167.172 443.684 167.117C443.748 167.062 443.801 166.995 443.84 166.919C443.878 166.844 443.902 166.762 443.908 166.677C443.915 166.593 443.904 166.508 443.878 166.427C443.839 166.306 443.765 166.2 443.666 166.121C443.567 166.042 443.446 165.994 443.32 165.983ZM363.659 170.169C363.51 170.168 363.366 170.218 363.25 170.311C363.134 170.404 363.055 170.535 363.024 170.68C363.006 170.763 363.005 170.849 363.02 170.932C363.036 171.015 363.067 171.095 363.114 171.166C363.16 171.237 363.22 171.298 363.289 171.346C363.359 171.394 363.438 171.428 363.521 171.445L366.582 172.096C366.665 172.113 366.751 172.115 366.834 172.099C366.917 172.084 366.997 172.052 367.068 172.006C367.139 171.96 367.2 171.9 367.248 171.83C367.296 171.76 367.33 171.682 367.347 171.599C367.365 171.516 367.366 171.43 367.351 171.347C367.335 171.264 367.304 171.184 367.258 171.113C367.211 171.042 367.152 170.981 367.082 170.933C367.012 170.885 366.933 170.851 366.85 170.834L363.789 170.183C363.746 170.174 363.703 170.169 363.659 170.169ZM444.342 170.175C444.299 170.176 444.255 170.181 444.212 170.189L441.151 170.839C441.068 170.856 440.99 170.89 440.92 170.938C440.85 170.986 440.79 171.047 440.744 171.118C440.698 171.189 440.666 171.269 440.651 171.352C440.635 171.435 440.637 171.521 440.654 171.604C440.672 171.687 440.705 171.765 440.753 171.835C440.801 171.905 440.863 171.965 440.934 172.011C441.005 172.057 441.084 172.089 441.168 172.104C441.251 172.12 441.336 172.119 441.419 172.101L444.48 171.451C444.563 171.433 444.642 171.399 444.712 171.352C444.782 171.304 444.841 171.242 444.888 171.171C444.934 171.1 444.966 171.021 444.981 170.937C444.996 170.854 444.995 170.768 444.977 170.686C444.947 170.54 444.867 170.41 444.751 170.317C444.635 170.223 444.491 170.174 444.342 170.175ZM362.879 174.407C362.731 174.421 362.593 174.486 362.487 174.591C362.382 174.695 362.316 174.833 362.301 174.981C362.292 175.065 362.299 175.15 362.323 175.232C362.347 175.313 362.387 175.389 362.44 175.455C362.493 175.521 362.559 175.575 362.634 175.616C362.708 175.656 362.79 175.682 362.874 175.69L370.273 176.472C370.357 176.481 370.442 176.474 370.524 176.45C370.605 176.426 370.681 176.386 370.747 176.333C370.813 176.28 370.867 176.214 370.908 176.139C370.948 176.065 370.973 175.983 370.982 175.899C370.991 175.814 370.984 175.729 370.96 175.648C370.936 175.566 370.896 175.491 370.843 175.425C370.789 175.359 370.723 175.304 370.649 175.264C370.574 175.223 370.493 175.198 370.408 175.189L363.01 174.407C362.966 174.403 362.922 174.402 362.879 174.407ZM445.128 174.462C445.084 174.458 445.04 174.458 444.997 174.463L437.597 175.235C437.513 175.244 437.431 175.269 437.357 175.309C437.282 175.349 437.216 175.404 437.163 175.47C437.11 175.536 437.07 175.611 437.046 175.693C437.022 175.774 437.014 175.859 437.023 175.943C437.031 176.028 437.057 176.11 437.097 176.184C437.137 176.259 437.192 176.325 437.258 176.378C437.324 176.431 437.399 176.471 437.481 176.495C437.562 176.519 437.647 176.527 437.731 176.518L445.131 175.746C445.215 175.737 445.297 175.712 445.371 175.672C445.446 175.631 445.512 175.577 445.565 175.511C445.618 175.445 445.658 175.369 445.682 175.288C445.706 175.207 445.714 175.122 445.705 175.037C445.69 174.89 445.624 174.752 445.519 174.647C445.414 174.542 445.276 174.477 445.128 174.462ZM362.754 178.745C362.669 178.744 362.585 178.761 362.507 178.793C362.428 178.826 362.357 178.873 362.297 178.933C362.237 178.993 362.19 179.064 362.157 179.143C362.125 179.221 362.108 179.305 362.109 179.39C362.108 179.474 362.125 179.558 362.157 179.637C362.19 179.715 362.237 179.786 362.297 179.846C362.357 179.906 362.428 179.954 362.507 179.986C362.585 180.018 362.669 180.035 362.754 180.035H365.883C365.968 180.035 366.052 180.018 366.13 179.986C366.209 179.953 366.28 179.906 366.34 179.846C366.4 179.786 366.447 179.715 366.48 179.637C366.512 179.558 366.528 179.474 366.528 179.39C366.528 179.305 366.512 179.221 366.48 179.143C366.447 179.064 366.4 178.993 366.34 178.933C366.28 178.873 366.209 178.826 366.13 178.793C366.052 178.761 365.968 178.744 365.883 178.744L362.754 178.745ZM442.117 178.745C442.032 178.744 441.948 178.761 441.87 178.793C441.791 178.826 441.72 178.873 441.66 178.933C441.6 178.993 441.553 179.064 441.52 179.143C441.488 179.221 441.472 179.305 441.472 179.39C441.472 179.474 441.488 179.558 441.521 179.637C441.553 179.715 441.6 179.786 441.66 179.846C441.72 179.906 441.791 179.954 441.87 179.986C441.948 180.018 442.032 180.035 442.117 180.035H445.246C445.331 180.035 445.415 180.018 445.493 179.986C445.572 179.953 445.643 179.906 445.703 179.846C445.763 179.786 445.81 179.715 445.843 179.637C445.875 179.558 445.891 179.474 445.891 179.39C445.891 179.305 445.875 179.221 445.843 179.142C445.81 179.064 445.763 178.993 445.703 178.933C445.643 178.873 445.572 178.826 445.493 178.793C445.415 178.761 445.331 178.744 445.246 178.744L442.117 178.745ZM370.4 182.261C370.356 182.256 370.312 182.256 370.269 182.261L362.869 183.033C362.785 183.042 362.703 183.067 362.628 183.107C362.554 183.148 362.488 183.202 362.435 183.268C362.381 183.334 362.341 183.41 362.317 183.491C362.293 183.572 362.286 183.657 362.295 183.742C362.303 183.826 362.328 183.908 362.369 183.982C362.409 184.057 362.464 184.123 362.529 184.176C362.595 184.23 362.671 184.269 362.752 184.293C362.833 184.317 362.919 184.325 363.003 184.316L370.402 183.544C370.487 183.535 370.569 183.51 370.643 183.47C370.718 183.43 370.784 183.375 370.837 183.309C370.89 183.243 370.93 183.168 370.954 183.086C370.978 183.005 370.986 182.92 370.977 182.836C370.962 182.688 370.896 182.55 370.791 182.445C370.686 182.34 370.547 182.275 370.4 182.261ZM437.596 182.306C437.448 182.32 437.31 182.385 437.205 182.49C437.099 182.595 437.033 182.733 437.018 182.881C437.009 182.965 437.017 183.05 437.041 183.131C437.064 183.213 437.104 183.288 437.157 183.354C437.211 183.42 437.276 183.475 437.351 183.515C437.425 183.556 437.507 183.581 437.591 183.59L444.99 184.372C445.074 184.381 445.159 184.373 445.241 184.349C445.322 184.326 445.398 184.286 445.464 184.232C445.53 184.179 445.584 184.113 445.625 184.039C445.665 183.964 445.691 183.883 445.699 183.798C445.708 183.714 445.701 183.629 445.677 183.547C445.653 183.466 445.613 183.39 445.56 183.324C445.506 183.259 445.441 183.204 445.366 183.163C445.292 183.123 445.21 183.098 445.126 183.089L437.727 182.307C437.684 182.302 437.64 182.302 437.596 182.306ZM366.711 186.664C366.667 186.664 366.624 186.669 366.581 186.677L363.52 187.328C363.437 187.345 363.358 187.379 363.288 187.427C363.218 187.475 363.159 187.536 363.113 187.607C363.066 187.678 363.035 187.758 363.019 187.841C363.004 187.924 363.005 188.01 363.023 188.093C363.04 188.176 363.074 188.254 363.122 188.324C363.17 188.394 363.231 188.454 363.302 188.5C363.373 188.546 363.453 188.578 363.536 188.593C363.619 188.609 363.705 188.607 363.788 188.59L366.849 187.94C366.932 187.922 367.011 187.888 367.081 187.841C367.151 187.793 367.21 187.731 367.256 187.66C367.303 187.589 367.334 187.51 367.35 187.426C367.365 187.343 367.364 187.258 367.346 187.175C367.315 187.029 367.236 186.899 367.12 186.806C367.004 186.712 366.86 186.663 366.711 186.664ZM441.288 186.67C441.139 186.668 440.995 186.719 440.879 186.812C440.764 186.905 440.684 187.035 440.653 187.181C440.635 187.264 440.634 187.349 440.649 187.433C440.665 187.516 440.696 187.595 440.742 187.666C440.789 187.738 440.848 187.799 440.918 187.847C440.988 187.895 441.067 187.928 441.15 187.946L444.211 188.596C444.294 188.614 444.379 188.615 444.463 188.6C444.546 188.585 444.626 188.553 444.697 188.507C444.768 188.461 444.829 188.401 444.877 188.331C444.925 188.261 444.959 188.183 444.976 188.1C444.994 188.017 444.995 187.931 444.98 187.848C444.964 187.765 444.933 187.685 444.887 187.614C444.84 187.543 444.781 187.482 444.711 187.434C444.641 187.386 444.562 187.352 444.479 187.334L441.418 186.684C441.375 186.675 441.332 186.67 441.288 186.67ZM371.866 189.21C371.78 189.202 371.693 189.213 371.611 189.24L364.536 191.54C364.455 191.566 364.381 191.607 364.316 191.662C364.252 191.717 364.199 191.785 364.16 191.86C364.122 191.936 364.099 192.018 364.092 192.103C364.086 192.187 364.096 192.272 364.122 192.352C364.148 192.433 364.19 192.508 364.245 192.572C364.3 192.637 364.367 192.69 364.442 192.728C364.518 192.767 364.6 192.79 364.685 192.797C364.769 192.803 364.854 192.793 364.935 192.767L372.01 190.467C372.09 190.44 372.165 190.399 372.23 190.344C372.294 190.289 372.347 190.222 372.386 190.146C372.424 190.071 372.447 189.988 372.454 189.904C372.461 189.819 372.45 189.734 372.424 189.654C372.385 189.533 372.311 189.427 372.212 189.348C372.113 189.269 371.992 189.221 371.866 189.21ZM436.127 189.233C436 189.244 435.88 189.291 435.781 189.37C435.681 189.449 435.608 189.556 435.569 189.676C435.542 189.757 435.532 189.842 435.538 189.926C435.545 190.011 435.568 190.093 435.606 190.169C435.645 190.244 435.698 190.311 435.762 190.366C435.827 190.421 435.901 190.463 435.982 190.489L443.056 192.794C443.136 192.821 443.221 192.831 443.306 192.824C443.39 192.818 443.472 192.795 443.548 192.756C443.624 192.718 443.691 192.665 443.746 192.601C443.801 192.536 443.843 192.461 443.869 192.381C443.895 192.3 443.905 192.215 443.899 192.131C443.892 192.046 443.869 191.964 443.831 191.888C443.793 191.813 443.74 191.746 443.675 191.691C443.611 191.635 443.536 191.594 443.455 191.568L436.382 189.263C436.3 189.236 436.213 189.226 436.127 189.233ZM369.166 194.248C369.08 194.249 368.995 194.268 368.916 194.303L366.057 195.576C365.979 195.611 365.909 195.66 365.851 195.721C365.792 195.783 365.747 195.855 365.716 195.934C365.686 196.013 365.672 196.098 365.674 196.182C365.676 196.267 365.695 196.35 365.73 196.428C365.764 196.505 365.814 196.575 365.875 196.634C365.936 196.692 366.009 196.738 366.088 196.768C366.167 196.799 366.251 196.813 366.336 196.811C366.421 196.808 366.504 196.789 366.581 196.755L369.441 195.482C369.518 195.448 369.588 195.398 369.646 195.337C369.705 195.275 369.75 195.203 369.781 195.124C369.811 195.045 369.826 194.961 369.823 194.876C369.821 194.791 369.802 194.708 369.767 194.63C369.716 194.514 369.632 194.416 369.525 194.348C369.418 194.28 369.293 194.245 369.166 194.248ZM438.823 194.272C438.696 194.269 438.572 194.304 438.465 194.372C438.357 194.44 438.273 194.538 438.222 194.654C438.187 194.732 438.168 194.815 438.166 194.9C438.163 194.985 438.178 195.069 438.208 195.148C438.238 195.227 438.284 195.3 438.342 195.361C438.401 195.423 438.471 195.472 438.548 195.506L441.406 196.781C441.483 196.816 441.567 196.835 441.651 196.837C441.736 196.84 441.821 196.825 441.9 196.795C441.979 196.765 442.051 196.719 442.113 196.661C442.174 196.602 442.223 196.532 442.258 196.455C442.292 196.377 442.312 196.294 442.314 196.209C442.316 196.125 442.302 196.04 442.272 195.961C442.241 195.882 442.196 195.81 442.137 195.748C442.079 195.687 442.009 195.637 441.931 195.603L439.074 194.328C438.995 194.293 438.91 194.274 438.823 194.272ZM374.733 195.67C374.604 195.66 374.476 195.69 374.365 195.755L367.922 199.475C367.849 199.517 367.784 199.574 367.733 199.641C367.681 199.708 367.643 199.785 367.621 199.867C367.599 199.948 367.594 200.034 367.605 200.118C367.616 200.202 367.644 200.283 367.686 200.356C367.728 200.43 367.785 200.494 367.852 200.546C367.919 200.597 367.996 200.635 368.078 200.657C368.159 200.679 368.245 200.684 368.329 200.673C368.413 200.662 368.494 200.635 368.567 200.592L375.01 196.873C375.083 196.83 375.148 196.774 375.199 196.707C375.251 196.64 375.289 196.563 375.311 196.481C375.333 196.399 375.338 196.314 375.327 196.23C375.316 196.146 375.288 196.065 375.246 195.991C375.193 195.9 375.119 195.822 375.029 195.766C374.94 195.71 374.838 195.677 374.733 195.67ZM433.267 195.67C433.162 195.677 433.06 195.71 432.97 195.766C432.881 195.822 432.806 195.899 432.754 195.991C432.711 196.064 432.684 196.145 432.672 196.229C432.661 196.314 432.667 196.399 432.689 196.481C432.711 196.563 432.749 196.639 432.8 196.707C432.852 196.774 432.916 196.83 432.99 196.873L439.433 200.592C439.506 200.635 439.587 200.662 439.671 200.673C439.755 200.685 439.84 200.679 439.922 200.657C440.004 200.635 440.081 200.597 440.148 200.546C440.215 200.494 440.272 200.43 440.314 200.356C440.356 200.283 440.384 200.202 440.395 200.118C440.406 200.034 440.401 199.948 440.379 199.867C440.357 199.785 440.319 199.708 440.268 199.641C440.216 199.574 440.151 199.517 440.078 199.475L433.635 195.755C433.524 195.691 433.396 195.661 433.267 195.67ZM373.126 201.129C372.997 201.133 372.873 201.176 372.769 201.252L370.236 203.09C370.167 203.139 370.109 203.202 370.064 203.274C370.02 203.346 369.99 203.427 369.977 203.51C369.964 203.594 369.967 203.679 369.987 203.762C370.007 203.844 370.043 203.922 370.092 203.99C370.142 204.059 370.205 204.117 370.277 204.162C370.349 204.206 370.429 204.236 370.513 204.249C370.597 204.262 370.682 204.259 370.765 204.239C370.847 204.219 370.925 204.184 370.993 204.134L373.526 202.296C373.595 202.246 373.653 202.184 373.698 202.111C373.742 202.039 373.772 201.959 373.785 201.875C373.798 201.792 373.795 201.706 373.775 201.624C373.756 201.541 373.72 201.464 373.67 201.395C373.608 201.309 373.526 201.24 373.431 201.194C373.336 201.147 373.231 201.125 373.126 201.129ZM434.859 201.15C434.753 201.146 434.648 201.169 434.553 201.215C434.458 201.262 434.376 201.331 434.315 201.416C434.265 201.485 434.229 201.562 434.209 201.645C434.189 201.727 434.186 201.813 434.199 201.896C434.212 201.98 434.242 202.06 434.286 202.133C434.331 202.205 434.389 202.268 434.457 202.317L436.989 204.157C437.058 204.207 437.135 204.243 437.218 204.263C437.3 204.282 437.386 204.286 437.469 204.273C437.553 204.259 437.633 204.23 437.705 204.185C437.778 204.141 437.84 204.083 437.89 204.014C437.94 203.946 437.976 203.868 437.996 203.786C438.016 203.703 438.019 203.618 438.006 203.534C437.993 203.45 437.963 203.37 437.919 203.298C437.874 203.226 437.816 203.163 437.747 203.113L435.216 201.274C435.112 201.198 434.987 201.155 434.859 201.15ZM378.862 201.373C378.778 201.368 378.693 201.38 378.613 201.409C378.533 201.437 378.46 201.481 378.397 201.538L372.864 206.512C372.801 206.568 372.749 206.636 372.713 206.713C372.676 206.789 372.655 206.872 372.651 206.957C372.646 207.041 372.658 207.126 372.687 207.206C372.715 207.286 372.759 207.359 372.816 207.422C372.872 207.485 372.94 207.537 373.017 207.573C373.093 207.61 373.176 207.631 373.261 207.636C373.346 207.64 373.43 207.628 373.51 207.6C373.59 207.571 373.663 207.528 373.726 207.471L379.259 202.497C379.322 202.441 379.374 202.372 379.41 202.296C379.447 202.219 379.468 202.136 379.472 202.052C379.477 201.967 379.465 201.883 379.436 201.803C379.408 201.723 379.364 201.649 379.307 201.586C379.251 201.523 379.183 201.472 379.106 201.435C379.03 201.399 378.947 201.377 378.862 201.373ZM429.122 201.391C428.951 201.4 428.791 201.477 428.676 201.604C428.62 201.667 428.576 201.74 428.547 201.82C428.519 201.9 428.507 201.985 428.511 202.069C428.516 202.154 428.537 202.237 428.573 202.313C428.61 202.39 428.661 202.458 428.724 202.515L434.254 207.492C434.317 207.549 434.39 207.593 434.47 207.621C434.55 207.65 434.634 207.662 434.719 207.657C434.804 207.653 434.887 207.632 434.963 207.595C435.04 207.559 435.108 207.507 435.165 207.444C435.221 207.382 435.265 207.308 435.294 207.228C435.322 207.148 435.334 207.064 435.33 206.979C435.325 206.894 435.304 206.812 435.268 206.735C435.231 206.659 435.18 206.59 435.117 206.534L429.587 201.556C429.524 201.499 429.451 201.455 429.371 201.427C429.291 201.399 429.207 201.386 429.122 201.391ZM384.111 206.116C384.006 206.112 383.901 206.134 383.806 206.18C383.711 206.226 383.629 206.296 383.567 206.381L379.19 212.397C379.14 212.466 379.104 212.543 379.084 212.626C379.064 212.708 379.061 212.793 379.074 212.877C379.087 212.961 379.117 213.041 379.161 213.113C379.206 213.186 379.264 213.248 379.332 213.298C379.401 213.348 379.478 213.384 379.561 213.404C379.643 213.424 379.729 213.428 379.812 213.414C379.896 213.401 379.976 213.372 380.049 213.327C380.121 213.283 380.184 213.225 380.233 213.156L384.61 207.14C384.66 207.072 384.696 206.994 384.716 206.912C384.736 206.829 384.739 206.744 384.726 206.66C384.713 206.576 384.683 206.496 384.639 206.424C384.595 206.352 384.537 206.289 384.468 206.239C384.364 206.163 384.24 206.12 384.111 206.116ZM423.853 206.143C423.724 206.147 423.6 206.19 423.496 206.266C423.427 206.315 423.369 206.378 423.325 206.45C423.28 206.522 423.251 206.602 423.237 206.686C423.224 206.77 423.227 206.855 423.247 206.938C423.267 207.02 423.303 207.098 423.353 207.166L427.721 213.188C427.771 213.257 427.833 213.315 427.906 213.36C427.978 213.404 428.058 213.434 428.142 213.447C428.225 213.46 428.311 213.457 428.393 213.437C428.476 213.418 428.553 213.382 428.622 213.332C428.691 213.282 428.749 213.219 428.793 213.147C428.838 213.075 428.867 212.995 428.881 212.911C428.894 212.827 428.891 212.742 428.871 212.659C428.851 212.577 428.815 212.499 428.765 212.431L424.397 206.409C424.335 206.323 424.253 206.254 424.158 206.208C424.063 206.161 423.959 206.139 423.853 206.143ZM378.462 207.072C378.291 207.081 378.13 207.158 378.016 207.285L375.922 209.611C375.865 209.674 375.821 209.747 375.793 209.827C375.765 209.907 375.752 209.992 375.757 210.076C375.761 210.161 375.782 210.244 375.819 210.32C375.855 210.397 375.907 210.465 375.97 210.522C376.033 210.579 376.106 210.622 376.186 210.651C376.266 210.679 376.35 210.691 376.435 210.687C376.52 210.683 376.603 210.661 376.679 210.625C376.755 210.588 376.824 210.537 376.88 210.474L378.975 208.148C379.032 208.085 379.075 208.012 379.104 207.932C379.132 207.852 379.144 207.768 379.14 207.683C379.136 207.598 379.114 207.515 379.078 207.439C379.041 207.362 378.99 207.294 378.927 207.237C378.864 207.18 378.791 207.136 378.711 207.108C378.631 207.08 378.546 207.067 378.462 207.072ZM429.535 207.075C429.45 207.07 429.365 207.082 429.286 207.111C429.206 207.139 429.132 207.183 429.07 207.24C429.007 207.297 428.955 207.365 428.919 207.442C428.882 207.518 428.861 207.601 428.856 207.686C428.852 207.77 428.864 207.855 428.893 207.935C428.921 208.015 428.965 208.088 429.022 208.151L431.115 210.477C431.172 210.54 431.24 210.591 431.317 210.628C431.393 210.665 431.476 210.686 431.561 210.69C431.645 210.695 431.73 210.682 431.81 210.654C431.89 210.626 431.963 210.582 432.026 210.525C432.089 210.468 432.141 210.4 432.177 210.323C432.214 210.247 432.235 210.164 432.239 210.079C432.244 209.995 432.231 209.91 432.203 209.83C432.175 209.75 432.131 209.677 432.074 209.614L429.98 207.288C429.924 207.225 429.855 207.173 429.779 207.137C429.702 207.1 429.619 207.079 429.535 207.075ZM390.223 209.655C390.096 209.652 389.971 209.687 389.864 209.755C389.757 209.823 389.673 209.921 389.622 210.037L386.59 216.831C386.556 216.909 386.537 216.992 386.534 217.077C386.532 217.161 386.546 217.246 386.577 217.325C386.607 217.404 386.653 217.476 386.711 217.538C386.769 217.599 386.839 217.649 386.917 217.683C386.994 217.718 387.078 217.737 387.162 217.739C387.247 217.742 387.331 217.727 387.41 217.697C387.49 217.667 387.562 217.621 387.623 217.563C387.685 217.504 387.734 217.434 387.769 217.357L390.8 210.563C390.834 210.485 390.853 210.402 390.856 210.317C390.858 210.232 390.844 210.148 390.813 210.069C390.783 209.99 390.737 209.917 390.679 209.856C390.621 209.795 390.551 209.745 390.473 209.711C390.394 209.675 390.309 209.656 390.223 209.655ZM417.737 209.673C417.65 209.675 417.565 209.694 417.486 209.729C417.408 209.763 417.338 209.813 417.28 209.874C417.222 209.935 417.176 210.008 417.145 210.087C417.115 210.166 417.1 210.25 417.103 210.335C417.105 210.42 417.124 210.503 417.159 210.581L420.18 217.379C420.215 217.456 420.264 217.526 420.325 217.585C420.387 217.643 420.459 217.689 420.538 217.719C420.617 217.75 420.701 217.764 420.786 217.762C420.871 217.76 420.954 217.741 421.032 217.706C421.109 217.672 421.179 217.623 421.238 217.561C421.296 217.5 421.342 217.428 421.372 217.349C421.403 217.269 421.417 217.185 421.415 217.1C421.413 217.016 421.394 216.932 421.359 216.855L418.337 210.057C418.286 209.941 418.202 209.842 418.095 209.774C417.988 209.706 417.863 209.671 417.737 209.673ZM384.897 211.755C384.791 211.762 384.689 211.796 384.6 211.852C384.51 211.908 384.436 211.985 384.383 212.077L382.819 214.787C382.776 214.86 382.748 214.941 382.737 215.025C382.726 215.109 382.732 215.195 382.754 215.276C382.775 215.358 382.813 215.435 382.865 215.502C382.917 215.569 382.981 215.626 383.055 215.668C383.128 215.711 383.209 215.738 383.293 215.749C383.377 215.761 383.462 215.755 383.544 215.733C383.626 215.711 383.703 215.673 383.77 215.622C383.837 215.57 383.893 215.506 383.936 215.432L385.5 212.722C385.543 212.648 385.571 212.567 385.582 212.483C385.593 212.399 385.587 212.314 385.565 212.232C385.544 212.15 385.506 212.073 385.454 212.006C385.402 211.939 385.338 211.883 385.264 211.841C385.153 211.776 385.025 211.746 384.897 211.755ZM423.104 211.755C422.975 211.746 422.847 211.776 422.736 211.841C422.663 211.883 422.598 211.939 422.547 212.006C422.495 212.074 422.457 212.15 422.435 212.232C422.413 212.314 422.408 212.4 422.419 212.484C422.43 212.568 422.458 212.649 422.5 212.722L424.065 215.432C424.107 215.506 424.163 215.57 424.231 215.622C424.298 215.673 424.374 215.711 424.456 215.733C424.538 215.755 424.624 215.761 424.708 215.749C424.792 215.738 424.873 215.711 424.946 215.668C425.019 215.626 425.084 215.569 425.135 215.502C425.187 215.435 425.225 215.358 425.247 215.276C425.269 215.195 425.274 215.109 425.263 215.025C425.252 214.941 425.224 214.86 425.182 214.787L423.617 212.077C423.565 211.985 423.49 211.908 423.401 211.852C423.311 211.796 423.209 211.763 423.104 211.755ZM396.971 211.852C396.822 211.851 396.678 211.901 396.562 211.994C396.446 212.088 396.367 212.218 396.336 212.363L394.79 219.641C394.772 219.724 394.771 219.809 394.786 219.893C394.802 219.976 394.833 220.055 394.88 220.127C394.926 220.198 394.985 220.259 395.055 220.307C395.125 220.355 395.204 220.388 395.287 220.406C395.37 220.424 395.455 220.425 395.539 220.409C395.622 220.394 395.702 220.362 395.773 220.316C395.844 220.27 395.905 220.21 395.953 220.14C396.001 220.071 396.035 219.992 396.052 219.909L397.598 212.632C397.618 212.538 397.617 212.441 397.595 212.348C397.573 212.254 397.53 212.167 397.47 212.093C397.41 212.018 397.334 211.958 397.248 211.916C397.161 211.875 397.067 211.853 396.971 211.852ZM411.007 211.857C410.911 211.857 410.816 211.879 410.73 211.92C410.644 211.962 410.568 212.022 410.508 212.097C410.448 212.171 410.405 212.258 410.383 212.351C410.36 212.445 410.359 212.541 410.379 212.635L411.92 219.914C411.937 219.997 411.971 220.075 412.019 220.145C412.067 220.215 412.128 220.275 412.199 220.321C412.27 220.367 412.349 220.399 412.433 220.415C412.516 220.43 412.602 220.429 412.685 220.411C412.768 220.394 412.846 220.36 412.916 220.312C412.986 220.264 413.046 220.203 413.092 220.132C413.139 220.061 413.17 219.982 413.186 219.898C413.201 219.815 413.2 219.729 413.182 219.646L411.641 212.368C411.611 212.223 411.531 212.093 411.415 211.999C411.3 211.906 411.155 211.856 411.007 211.857ZM404 212.591C403.915 212.591 403.831 212.607 403.753 212.64C403.675 212.672 403.604 212.72 403.544 212.78C403.484 212.839 403.436 212.911 403.404 212.989C403.371 213.067 403.355 213.151 403.355 213.236V220.676C403.355 220.76 403.371 220.844 403.404 220.923C403.436 221.001 403.484 221.072 403.544 221.132C403.604 221.192 403.675 221.24 403.753 221.272C403.832 221.304 403.915 221.321 404 221.321C404.085 221.321 404.169 221.304 404.247 221.272C404.326 221.24 404.397 221.192 404.457 221.132C404.517 221.072 404.564 221.001 404.596 220.923C404.629 220.844 404.645 220.76 404.645 220.676V213.236C404.645 213.151 404.629 213.067 404.596 212.989C404.564 212.911 404.517 212.84 404.457 212.78C404.397 212.72 404.326 212.672 404.247 212.64C404.169 212.608 404.085 212.591 404 212.591ZM392.161 214.995C392.034 215.006 391.914 215.054 391.815 215.133C391.715 215.212 391.641 215.318 391.602 215.439L390.635 218.415C390.609 218.496 390.598 218.581 390.605 218.665C390.612 218.75 390.635 218.832 390.673 218.907C390.712 218.983 390.765 219.05 390.829 219.105C390.894 219.16 390.968 219.202 391.049 219.228C391.13 219.254 391.215 219.264 391.299 219.258C391.384 219.251 391.466 219.228 391.542 219.19C391.617 219.151 391.684 219.098 391.739 219.034C391.794 218.969 391.836 218.894 391.862 218.814L392.829 215.838C392.856 215.757 392.866 215.672 392.859 215.588C392.853 215.503 392.83 215.421 392.791 215.345C392.753 215.27 392.7 215.203 392.635 215.148C392.571 215.093 392.496 215.051 392.415 215.025C392.333 214.998 392.247 214.988 392.161 214.995ZM415.835 214.997C415.749 214.989 415.662 214.999 415.58 215.026C415.499 215.052 415.425 215.094 415.36 215.149C415.295 215.204 415.242 215.271 415.204 215.347C415.165 215.422 415.142 215.504 415.136 215.589C415.129 215.673 415.139 215.758 415.166 215.839L416.133 218.815C416.159 218.896 416.2 218.971 416.255 219.035C416.31 219.1 416.378 219.153 416.453 219.191C416.529 219.23 416.611 219.253 416.695 219.259C416.78 219.266 416.865 219.256 416.946 219.229C417.026 219.203 417.101 219.162 417.165 219.107C417.23 219.052 417.283 218.985 417.322 218.909C417.36 218.834 417.383 218.751 417.39 218.667C417.396 218.582 417.386 218.497 417.36 218.417L416.393 215.44C416.354 215.32 416.28 215.213 416.181 215.134C416.081 215.055 415.961 215.007 415.835 214.997ZM399.952 216.654C399.804 216.669 399.665 216.734 399.56 216.838C399.455 216.943 399.389 217.081 399.373 217.229L399.046 220.341C399.037 220.426 399.045 220.511 399.069 220.592C399.093 220.673 399.133 220.749 399.186 220.815C399.239 220.881 399.305 220.935 399.38 220.976C399.454 221.016 399.536 221.041 399.62 221.05C399.705 221.059 399.79 221.051 399.871 221.027C399.952 221.003 400.028 220.964 400.094 220.91C400.16 220.857 400.215 220.791 400.255 220.717C400.295 220.642 400.321 220.56 400.329 220.476L400.656 217.364C400.666 217.28 400.658 217.194 400.634 217.113C400.61 217.032 400.57 216.956 400.517 216.89C400.463 216.824 400.398 216.769 400.323 216.729C400.249 216.689 400.167 216.663 400.082 216.655C400.039 216.65 399.995 216.65 399.952 216.654ZM408.023 216.657C407.979 216.653 407.935 216.653 407.892 216.658C407.807 216.666 407.726 216.692 407.651 216.732C407.576 216.772 407.511 216.827 407.457 216.893C407.404 216.959 407.364 217.034 407.34 217.116C407.316 217.197 407.308 217.282 407.317 217.366L407.642 220.479C407.651 220.563 407.676 220.645 407.716 220.72C407.757 220.794 407.811 220.86 407.877 220.913C407.943 220.967 408.019 221.007 408.1 221.031C408.181 221.055 408.266 221.062 408.351 221.053C408.435 221.045 408.517 221.02 408.591 220.979C408.666 220.939 408.732 220.884 408.785 220.818C408.839 220.753 408.878 220.677 408.902 220.596C408.927 220.514 408.934 220.429 408.925 220.345L408.6 217.232C408.585 217.085 408.52 216.947 408.414 216.842C408.309 216.737 408.171 216.672 408.023 216.657Z" fill="#D0D0D0"/>
<path d="M409.057 184.685L398.943 183.517V174.092L434.823 149.955L409.057 184.685Z" fill="#E9E9E9"/>
<path d="M409.058 184.684L398.943 174.092L373.177 208.822L409.058 184.684Z" fill="#FEFEFE"/>
<path opacity="0.243" d="M373.177 208.822L409.057 184.685L434.823 149.955L373.177 208.822Z" fill="url(#paint3_linear_374_1333)"/>
<path d="M8.1151 154.149L88.7582 159.718L89.2654 160.225L88.1263 160.672L44.1255 227.063H43.1112L43.4516 225.698L9.48066 156.914L8.62229 156.174L7.60791 155.161L8.1151 154.149Z" fill="#E9E9E9"/>
<path d="M46.8803 133.397C46.8803 133.397 74.584 132.156 89.2719 159.956L46.5965 157.968C46.5965 157.968 36.0779 159.684 28.864 169.912C26.7917 174.205 26.9172 167.713 29.4169 176.428C25.816 170.337 7.94678 154.28 7.94678 154.28C7.94678 154.28 18.8915 134.496 46.8803 133.397Z" fill="url(#paint4_linear_374_1333)"/>
<path d="M87.8343 203.971C87.8343 203.971 75.0505 228.552 43.6035 227.336C47.4891 220.625 66.0826 192.719 66.0826 192.719C66.0826 192.719 70.4528 181.485 65.1813 170.132C62.5 166.188 69.1626 170.525 60.3556 168.326C67.4405 168.262 89.1944 159.865 89.1944 159.865C89.1944 159.865 100.864 179.222 87.8343 203.971Z" fill="url(#paint5_linear_374_1333)"/>
<path d="M6.12068 204.165C6.12068 204.165 -8.81294 180.825 7.97262 154.241C11.8453 160.952 26.546 189.611 26.546 189.611C26.546 189.611 34.3298 200.376 46.8024 201.488C51.556 201.139 45.4124 205.211 51.7333 198.707C48.2486 204.862 43.7065 227.388 43.7065 227.388C43.7065 227.388 21.0672 227.802 6.12068 204.165Z" fill="url(#paint6_linear_374_1333)"/>
<path d="M24.2866 180.471C24.2866 167.889 34.5074 157.686 47.1101 157.686C59.7129 157.686 69.9337 167.889 69.9337 180.471C69.9337 193.054 59.7129 203.257 47.1101 203.257C34.5074 203.243 24.2866 193.054 24.2866 180.471Z" fill="#FEFEFE" stroke="#E9E9E9" stroke-width="0.5"/>
<path d="M29.9348 180.201C29.9348 170.581 37.745 162.771 47.3942 162.771C57.0302 162.771 64.8532 170.568 64.8532 180.201C64.8532 189.821 57.0434 197.632 47.3942 197.632C37.7579 197.632 29.9348 189.821 29.9348 180.201Z" fill="#E9E9E9"/>
<path d="M201.646 202.833C200.366 203.502 199.046 204.092 197.694 204.599C193.389 206.21 188.828 207.03 184.232 207.021C166.488 207.021 151.031 194.816 151.031 179.154C151.054 177.054 151.637 174.997 152.72 173.197C153.803 171.397 155.347 169.918 157.192 168.914C141.143 169.589 137.019 186.312 137.019 196.11C137.019 223.812 162.551 226.62 168.052 226.62C171.018 226.62 175.491 225.758 178.176 224.91L178.667 224.745C188.999 221.174 197.806 214.192 203.641 204.948C203.819 204.666 203.899 204.333 203.867 204.001C203.836 203.669 203.694 203.357 203.465 203.115C203.237 202.872 202.933 202.713 202.604 202.662C202.274 202.611 201.937 202.671 201.646 202.833Z" fill="url(#paint7_linear_374_1333)"/>
<path d="M154.647 221.911C151.302 219.835 148.403 217.115 146.12 213.909C143.516 210.343 141.725 206.25 140.871 201.918C140.017 197.587 140.122 193.12 141.177 188.833C142.232 184.546 144.212 180.541 146.979 177.1C149.746 173.659 153.232 170.865 157.193 168.914C158.363 168.363 160.361 167.366 163.02 167.414C164.893 167.428 166.737 167.875 168.409 168.721C170.08 169.567 171.533 170.788 172.653 172.289C174.167 174.311 175.002 176.76 175.038 179.286C175.038 179.207 184.21 149.439 145.04 149.439C128.578 149.439 115.042 165.06 115.042 178.764C114.977 186.014 116.528 193.187 119.582 199.762C124.575 210.413 133.305 218.86 144.115 223.499C154.924 228.137 167.062 228.645 178.221 224.925C174.314 226.157 170.186 226.527 166.122 226.009C162.057 225.491 158.154 224.098 154.68 221.926L154.647 221.911Z" fill="white"/>
<path d="M154.647 221.911C151.302 219.835 148.403 217.115 146.12 213.909C143.516 210.343 141.725 206.25 140.871 201.918C140.017 197.587 140.122 193.12 141.177 188.833C142.232 184.546 144.212 180.541 146.979 177.1C149.746 173.659 153.232 170.865 157.193 168.914C158.363 168.363 160.361 167.366 163.02 167.414C164.893 167.428 166.737 167.875 168.409 168.721C170.08 169.567 171.533 170.788 172.653 172.289C174.167 174.311 175.002 176.76 175.038 179.286C175.038 179.207 184.21 149.439 145.04 149.439C128.578 149.439 115.042 165.06 115.042 178.764C114.977 186.014 116.528 193.187 119.582 199.762C124.575 210.413 133.305 218.86 144.115 223.499C154.924 228.137 167.062 228.645 178.221 224.925C174.314 226.157 170.186 226.527 166.122 226.009C162.057 225.491 158.154 224.098 154.68 221.926L154.647 221.911Z" fill="url(#paint8_linear_374_1333)"/>
<path d="M172.12 187.205C171.816 187.598 170.883 188.142 170.883 189.327C170.883 190.305 171.52 191.247 172.653 192.038C178.045 195.787 188.21 195.292 188.237 195.292C192.232 195.283 196.152 194.202 199.587 192.162C203.053 190.138 205.929 187.244 207.931 183.766C209.932 180.288 210.99 176.347 210.998 172.334C211.095 163.931 207.998 158.344 206.746 155.869C198.8 140.327 181.648 131.388 162.997 131.388C150.383 131.387 138.276 136.351 129.294 145.206C120.312 154.062 115.177 166.096 115 178.708C115.18 165.007 128.799 153.942 144.998 153.942C146.311 153.942 153.795 154.07 160.747 157.718C166.874 160.935 170.084 164.82 172.315 168.67C174.633 172.671 175.045 177.726 175.045 179.739C175.045 181.753 174.018 184.737 172.12 187.205Z" fill="white"/>
<path d="M172.12 187.205C171.816 187.598 170.883 188.142 170.883 189.327C170.883 190.305 171.52 191.247 172.653 192.038C178.045 195.787 188.21 195.292 188.237 195.292C192.232 195.283 196.152 194.202 199.587 192.162C203.053 190.138 205.929 187.244 207.931 183.766C209.932 180.288 210.99 176.347 210.998 172.334C211.095 163.931 207.998 158.344 206.746 155.869C198.8 140.327 181.648 131.388 162.997 131.388C150.383 131.387 138.276 136.351 129.294 145.206C120.312 154.062 115.177 166.096 115 178.708C115.18 165.007 128.799 153.942 144.998 153.942C146.311 153.942 153.795 154.07 160.747 157.718C166.874 160.935 170.084 164.82 172.315 168.67C174.633 172.671 175.045 177.726 175.045 179.739C175.045 181.753 174.018 184.737 172.12 187.205Z" fill="white"/>
<defs>
<linearGradient id="paint0_linear_374_1333" x1="283.48" y1="189.485" x2="286.888" y2="169.17" gradientUnits="userSpaceOnUse">
<stop stop-color="#E9E9E9"/>
<stop offset="1" stop-color="#FEFEFE"/>
</linearGradient>
<linearGradient id="paint1_linear_374_1333" x1="364.735" y1="147.765" x2="434.759" y2="217.924" gradientUnits="userSpaceOnUse">
<stop stop-color="#FEFEFE"/>
<stop offset="1" stop-color="#D9D9D9"/>
</linearGradient>
<linearGradient id="paint2_linear_374_1333" x1="414.5" y1="190.888" x2="386.5" y2="160.888" gradientUnits="userSpaceOnUse">
<stop stop-color="#F3F3F3"/>
<stop offset="1" stop-color="#FEFEFE"/>
</linearGradient>
<linearGradient id="paint3_linear_374_1333" x1="404" y1="149.955" x2="404" y2="208.822" gradientUnits="userSpaceOnUse">
<stop stop-color="#E9E9E9"/>
<stop offset="1"/>
</linearGradient>
<linearGradient id="paint4_linear_374_1333" x1="22" y1="151.888" x2="60.5" y2="144.888" gradientUnits="userSpaceOnUse">
<stop stop-color="#EFEFEF"/>
<stop offset="1" stop-color="#FEFEFE"/>
</linearGradient>
<linearGradient id="paint5_linear_374_1333" x1="85.5" y1="168.388" x2="75.4916" y2="200.886" gradientUnits="userSpaceOnUse">
<stop stop-color="#EFEFEF"/>
<stop offset="1" stop-color="#FEFEFE"/>
</linearGradient>
<linearGradient id="paint6_linear_374_1333" x1="38.5" y1="216.888" x2="9.48676" y2="185.401" gradientUnits="userSpaceOnUse">
<stop stop-color="#EFEFEF"/>
<stop offset="1" stop-color="#FEFEFE"/>
</linearGradient>
<linearGradient id="paint7_linear_374_1333" x1="183.071" y1="217.066" x2="149.01" y2="187.159" gradientUnits="userSpaceOnUse">
<stop stop-color="#FEFEFE"/>
<stop offset="1" stop-color="#DADADA"/>
</linearGradient>
<linearGradient id="paint8_linear_374_1333" x1="133" y1="160.888" x2="136.5" y2="192.888" gradientUnits="userSpaceOnUse">
<stop stop-color="#DADADA"/>
<stop offset="1" stop-color="#E9E9E9" stop-opacity="0"/>
</linearGradient>
</defs>
</svg>
