<svg width="7" height="9" viewBox="0 0 7 9" fill="none" xmlns="http://www.w3.org/2000/svg">
<path d="M6.20703 2.01748C6.05664 1.68877 5.84287 1.39336 5.57002 1.14092C5.01572 0.626367 4.27988 0.342773 3.5 0.342773C2.72012 0.342773 1.98428 0.626367 1.42998 1.13984C1.15713 1.39336 0.943359 1.6877 0.792969 2.01748C0.636133 2.36123 0.556641 2.72539 0.556641 3.10137V3.39141C0.556641 3.45801 0.610352 3.51172 0.676953 3.51172H1.25703C1.32363 3.51172 1.37734 3.45801 1.37734 3.39141V3.10137C1.37734 2.03252 2.3291 1.16348 3.5 1.16348C4.6709 1.16348 5.62266 2.03252 5.62266 3.10137C5.62266 3.53965 5.46689 3.95215 5.17148 4.2959C4.8793 4.63643 4.4668 4.88027 4.01025 4.9834C3.74922 5.04248 3.51396 5.18965 3.34746 5.4002C3.18154 5.61002 3.0911 5.86961 3.09072 6.13711V6.47441C3.09072 6.54102 3.14443 6.59473 3.21104 6.59473H3.79111C3.85771 6.59473 3.91143 6.54102 3.91143 6.47441V6.13711C3.91143 5.96846 4.02852 5.82022 4.19072 5.78369C4.81807 5.64189 5.3874 5.30352 5.79453 4.83086C5.99971 4.59131 6.15977 4.3249 6.27041 4.03594C6.38535 3.73623 6.44336 3.42148 6.44336 3.10137C6.44336 2.72539 6.36387 2.36016 6.20703 2.01748ZM3.5 7.4541C3.16807 7.4541 2.89844 7.72373 2.89844 8.05566C2.89844 8.3876 3.16807 8.65723 3.5 8.65723C3.83193 8.65723 4.10156 8.3876 4.10156 8.05566C4.10156 7.72373 3.83193 7.4541 3.5 7.4541Z" fill="white"/>
</svg>
