<svg width="50" height="50" viewBox="0 0 50 50" fill="none" xmlns="http://www.w3.org/2000/svg">
<circle cx="25" cy="25" r="24.5" fill="white" stroke="#CCCCCC"/>
<path d="M23 31C23.2652 31 23.5196 30.8946 23.7071 30.7071C23.8946 30.5196 24 30.2652 24 30V24C24 23.7348 23.8946 23.4804 23.7071 23.2929C23.5196 23.1054 23.2652 23 23 23C22.7348 23 22.4804 23.1054 22.2929 23.2929C22.1054 23.4804 22 23.7348 22 24V30C22 30.2652 22.1054 30.5196 22.2929 30.7071C22.4804 30.8946 22.7348 31 23 31ZM33 19H29V18C29 17.2044 28.6839 16.4413 28.1213 15.8787C27.5587 15.3161 26.7956 15 26 15H24C23.2044 15 22.4413 15.3161 21.8787 15.8787C21.3161 16.4413 21 17.2044 21 18V19H17C16.7348 19 16.4804 19.1054 16.2929 19.2929C16.1054 19.4804 16 19.7348 16 20C16 20.2652 16.1054 20.5196 16.2929 20.7071C16.4804 20.8946 16.7348 21 17 21H18V32C18 32.7956 18.3161 33.5587 18.8787 34.1213C19.4413 34.6839 20.2044 35 21 35H29C29.7956 35 30.5587 34.6839 31.1213 34.1213C31.6839 33.5587 32 32.7956 32 32V21H33C33.2652 21 33.5196 20.8946 33.7071 20.7071C33.8946 20.5196 34 20.2652 34 20C34 19.7348 33.8946 19.4804 33.7071 19.2929C33.5196 19.1054 33.2652 19 33 19ZM23 18C23 17.7348 23.1054 17.4804 23.2929 17.2929C23.4804 17.1054 23.7348 17 24 17H26C26.2652 17 26.5196 17.1054 26.7071 17.2929C26.8946 17.4804 27 17.7348 27 18V19H23V18ZM30 32C30 32.2652 29.8946 32.5196 29.7071 32.7071C29.5196 32.8946 29.2652 33 29 33H21C20.7348 33 20.4804 32.8946 20.2929 32.7071C20.1054 32.5196 20 32.2652 20 32V21H30V32ZM27 31C27.2652 31 27.5196 30.8946 27.7071 30.7071C27.8946 30.5196 28 30.2652 28 30V24C28 23.7348 27.8946 23.4804 27.7071 23.2929C27.5196 23.1054 27.2652 23 27 23C26.7348 23 26.4804 23.1054 26.2929 23.2929C26.1054 23.4804 26 23.7348 26 24V30C26 30.2652 26.1054 30.5196 26.2929 30.7071C26.4804 30.8946 26.7348 31 27 31Z" fill="#CCCCCC"/>
</svg>
