<svg width="11" height="11" viewBox="0 0 11 11" fill="none" xmlns="http://www.w3.org/2000/svg">
<path d="M8.20703 3.01748C8.05664 2.68877 7.84287 2.39336 7.57002 2.14092C7.01572 1.62637 6.27988 1.34277 5.5 1.34277C4.72012 1.34277 3.98428 1.62637 3.42998 2.13984C3.15713 2.39336 2.94336 2.6877 2.79297 3.01748C2.63613 3.36123 2.55664 3.72539 2.55664 4.10137V4.39141C2.55664 4.45801 2.61035 4.51172 2.67695 4.51172H3.25703C3.32363 4.51172 3.37734 4.45801 3.37734 4.39141V4.10137C3.37734 3.03252 4.3291 2.16348 5.5 2.16348C6.6709 2.16348 7.62266 3.03252 7.62266 4.10137C7.62266 4.53965 7.46689 4.95215 7.17148 5.2959C6.8793 5.63643 6.4668 5.88027 6.01025 5.9834C5.74922 6.04248 5.51396 6.18965 5.34746 6.4002C5.18154 6.61002 5.0911 6.86961 5.09072 7.13711V7.47441C5.09072 7.54102 5.14443 7.59473 5.21104 7.59473H5.79111C5.85771 7.59473 5.91143 7.54102 5.91143 7.47441V7.13711C5.91143 6.96846 6.02852 6.82022 6.19072 6.78369C6.81807 6.64189 7.3874 6.30352 7.79453 5.83086C7.99971 5.59131 8.15977 5.3249 8.27041 5.03594C8.38535 4.73623 8.44336 4.42148 8.44336 4.10137C8.44336 3.72539 8.36387 3.36016 8.20703 3.01748ZM5.5 8.4541C5.16807 8.4541 4.89844 8.72373 4.89844 9.05566C4.89844 9.3876 5.16807 9.65723 5.5 9.65723C5.83193 9.65723 6.10156 9.3876 6.10156 9.05566C6.10156 8.72373 5.83193 8.4541 5.5 8.4541Z" fill="white"/>
</svg>
