<svg width="13" height="13" viewBox="0 0 13 13" fill="none" xmlns="http://www.w3.org/2000/svg">
<path d="M6.39541 8.97363C6.40783 8.98951 6.42371 9.00235 6.44183 9.01117C6.45995 9.02 6.47984 9.02459 6.5 9.02459C6.52016 9.02459 6.54005 9.02 6.55817 9.01117C6.57629 9.00235 6.59217 8.98951 6.60459 8.97363L8.46397 6.62119C8.53203 6.53486 8.47061 6.40703 8.35938 6.40703H7.1292V0.789063C7.1292 0.716016 7.06943 0.65625 6.99639 0.65625H6.00029C5.92725 0.65625 5.86748 0.716016 5.86748 0.789063V6.40537H4.64063C4.52939 6.40537 4.46797 6.5332 4.53604 6.61953L6.39541 8.97363ZM12.5762 8.39258H11.5801C11.507 8.39258 11.4473 8.45234 11.4473 8.52539V11.082H1.55273V8.52539C1.55273 8.45234 1.49297 8.39258 1.41992 8.39258H0.423828C0.350781 8.39258 0.291016 8.45234 0.291016 8.52539V11.8125C0.291016 12.1063 0.528418 12.3438 0.822266 12.3438H12.1777C12.4716 12.3438 12.709 12.1063 12.709 11.8125V8.52539C12.709 8.45234 12.6492 8.39258 12.5762 8.39258Z" fill="#888888"/>
</svg>
