<svg width="21" height="21" viewBox="0 0 21 21" fill="none" xmlns="http://www.w3.org/2000/svg">
<path d="M11.1562 14.4375V9.1875H8.53125V10.5H9.84375V14.4375H7.875V15.75H13.125V14.4375H11.1562ZM10.5 5.25C10.3053 5.25 10.115 5.30773 9.95311 5.4159C9.79123 5.52406 9.66506 5.6778 9.59056 5.85767C9.51605 6.03754 9.49656 6.23547 9.53454 6.42642C9.57252 6.61737 9.66627 6.79277 9.80394 6.93043C9.94161 7.0681 10.117 7.16185 10.308 7.19984C10.4989 7.23782 10.6968 7.21832 10.8767 7.14382C11.0566 7.06931 11.2103 6.94314 11.3185 6.78126C11.4266 6.61938 11.4844 6.42907 11.4844 6.23438C11.4844 5.9733 11.3807 5.72292 11.1961 5.53832C11.0115 5.35371 10.7611 5.25 10.5 5.25Z" fill="#BFBFC5"/>
<path d="M17.0625 18.375H3.9375C3.58951 18.3747 3.25587 18.2363 3.00981 17.9902C2.76374 17.7441 2.62535 17.4105 2.625 17.0625V3.9375C2.62535 3.58951 2.76374 3.25587 3.00981 3.00981C3.25587 2.76374 3.58951 2.62535 3.9375 2.625H17.0625C17.4105 2.62535 17.7441 2.76374 17.9902 3.00981C18.2363 3.25587 18.3747 3.58951 18.375 3.9375V17.0625C18.3747 17.4105 18.2363 17.7441 17.9902 17.9902C17.7441 18.2363 17.4105 18.3747 17.0625 18.375ZM3.9375 3.9375V17.0625H17.0625V3.9375H10.5H3.9375Z" fill="#BFBFC5"/>
</svg>
